<svg width="326" height="231" viewBox="0 0 326 231" fill="none" xmlns="http://www.w3.org/2000/svg">
<g clip-path="url(#clip0)">
<path opacity="0.1" d="M108.251 230.87C124.108 230.87 136.962 228.802 136.962 226.252C136.962 223.701 124.108 221.633 108.251 221.633C92.3942 221.633 79.5397 223.701 79.5397 226.252C79.5397 228.802 92.3942 230.87 108.251 230.87Z" fill="#E00000"/>
<path opacity="0.1" d="M264.322 231C284.109 231 300.149 228.932 300.149 226.381C300.149 223.831 284.109 221.763 264.322 221.763C244.535 221.763 228.495 223.831 228.495 226.381C228.495 228.932 244.535 231 264.322 231Z" fill="#E00000"/>
<path opacity="0.1" d="M4.0781 99.8086H33.9828V140.632H6.2674C6.19373 141.051 6.12301 141.473 6.0464 141.895H33.9828V174.818C33.9327 174.804 33.8885 174.786 33.8414 174.768C33.0517 174.455 32.2679 174.125 31.4841 173.771L30.9832 173.544C30.1975 173.172 29.4117 172.778 28.626 172.363C28.3519 172.218 28.0779 172.068 27.8068 171.915C23.4447 169.467 19.4819 166.366 16.0559 162.719C15.9557 162.621 15.8614 162.518 15.7612 162.424C15.2839 161.904 14.8154 161.379 14.3616 160.842L13.8607 160.252C13.3244 159.593 12.8058 158.918 12.302 158.233C12.2283 158.133 12.1576 158.032 12.081 157.938C10.0318 155.092 8.33029 152.011 7.01288 148.76C6.97163 148.662 6.93627 148.556 6.89796 148.465C6.4933 147.422 6.1348 146.369 5.82246 145.307C5.68692 144.861 5.55727 144.421 5.4453 143.958C5.40405 143.822 5.36869 143.69 5.33628 143.557C3.66263 137.014 3.46521 130.217 3.46521 123.468C3.46521 122.68 3.46521 121.889 3.46521 121.107C3.46521 118.377 3.49762 115.63 3.54477 112.885C3.54477 112.174 3.57423 111.466 3.58897 110.752C3.63022 108.94 3.68915 107.127 3.76576 105.315C3.78344 104.811 3.80701 104.309 3.83353 103.807C3.83353 103.518 3.84826 103.229 3.87773 102.94C3.94845 101.889 4.00738 100.847 4.0781 99.8086Z" fill="#E00000"/>
<path opacity="0.1" d="M33.9828 54.3547H17.5792C20.2457 50.1746 23.1592 46.1577 26.304 42.3257C28.7408 39.3273 31.3132 36.4056 33.9828 33.5902V54.3547Z" fill="#E00000"/>
<path opacity="0.1" d="M33.9828 55.6178V98.5455H4.17236C4.17236 98.4216 4.19299 98.2947 4.20183 98.1707C4.22835 97.8313 4.25487 97.492 4.28433 97.1555C4.31674 96.7601 4.3521 96.3617 4.39041 95.9751C4.42871 95.5885 4.46997 95.1163 4.51417 94.6884C4.55836 94.2604 4.59962 93.8266 4.64971 93.3987C4.6998 92.9708 4.744 92.5428 4.79704 92.1179C4.85007 91.6929 4.89722 91.262 4.9532 90.8371C4.9974 90.4829 5.04455 90.1317 5.09169 89.7776C5.15946 89.2789 5.23018 88.7771 5.30679 88.2814C5.30679 88.2076 5.32742 88.1308 5.3392 88.06C5.87701 84.4306 6.6098 80.8328 7.5344 77.2823C8.50222 73.5579 9.7381 69.9086 11.2323 66.363C12.8204 62.6539 14.6799 59.0673 16.7955 55.6326L33.9828 55.6178Z" fill="#E00000"/>
<path opacity="0.1" d="M41.1223 99.8057V140.632H104.995V99.8057H41.1223ZM41.1223 141.892V176.952C41.4877 177.029 41.8501 177.103 42.2096 177.165C42.6987 177.259 43.1849 177.345 43.6829 177.419C43.7772 177.433 43.8744 177.448 43.9775 177.457C44.172 177.489 44.3724 177.516 44.5669 177.543C45.0589 177.61 45.5481 177.666 46.0401 177.711C46.2729 177.734 46.5086 177.755 46.7444 177.773L47.3131 177.817C47.6224 177.841 47.9289 177.858 48.2324 177.867C48.421 177.867 48.6095 177.885 48.804 177.891C48.9513 177.891 49.0987 177.891 49.2519 177.891C49.4051 177.891 49.6232 177.891 49.8088 177.891C50.0622 177.891 50.3156 177.891 50.5661 177.891H50.9049C51.1583 177.891 51.4117 177.891 51.6622 177.867H51.6799C51.8537 177.867 52.0305 177.867 52.2073 177.844C52.2564 177.847 52.3056 177.847 52.3546 177.844C52.502 177.844 52.6493 177.844 52.7907 177.823H52.8939L53.881 177.746C54.2051 177.717 54.5321 177.678 54.8622 177.643L55.534 177.563C58.2672 177.18 60.9699 176.604 63.6223 175.84C69.5803 174.175 75.4086 171.847 81.3636 170.141C89.063 167.942 97.5697 166.862 105.01 169.551V141.892H41.1223ZM104.995 54.3547V0.00299524C98.0021 -0.0728864 91.0281 0.746301 84.2424 2.44066C68.0687 6.51033 53.5568 15.3373 41.1223 26.6108V54.3518H44.3282V55.6119H41.1223V98.5456H104.995V55.6149H57.4905V54.3547H104.995ZM187.036 35.9955C183.035 35.8538 179.057 34.5848 175.459 32.6252C168.579 28.8773 163.084 23.09 156.943 18.2058C144.184 8.03313 128.361 1.8947 112.129 0.371892V54.3547H203.31L203.537 54.1157L187.036 35.9955ZM195.343 34.5199L204.15 44.1997V31.9819C201.201 32.3478 198.616 33.2184 195.355 34.5081L195.343 34.5199ZM204.15 185.658V141.892H185.383C185.333 141.706 185.283 141.518 185.224 141.329C185.28 141.518 185.327 141.706 185.38 141.892H112.141V173.544C112.836 174.06 113.522 174.603 114.203 175.155C114.937 175.745 115.662 176.368 116.389 176.979L117.123 177.587C117.474 177.882 117.827 178.177 118.184 178.454C118.891 179.029 119.605 179.596 120.326 180.154C120.683 180.449 121.048 180.715 121.41 180.992C127.164 185.398 133.234 189.375 139.57 192.889C140.99 193.676 142.423 194.444 143.869 195.193C144.833 195.686 145.802 196.176 146.774 196.651C148.236 197.366 149.709 198.054 151.194 198.717C164.886 204.873 179.364 209.097 194.214 211.269C197.512 211.756 200.823 212.14 204.147 212.419V185.655H204.442L204.15 185.658ZM112.141 55.6149V98.5456H204.162V55.6149H112.141ZM112.141 99.8057V140.632H204.162V99.8057H112.141ZM211.304 31.9288V45.5573L222.545 33.2037C218.821 32.6016 215.074 32.1718 211.304 31.914V31.9288ZM211.304 99.8205V140.632H300.806V99.8057L211.304 99.8205ZM300.479 188.899L300.795 141.892H211.304V212.889C217.069 213.131 222.843 213.062 228.601 212.682H228.701C231.451 212.509 234.188 212.257 236.913 211.927H236.975C251.51 210.232 265.724 206.434 279.17 200.65L300.479 188.899ZM318.064 106.528C317.728 105.735 317.378 104.947 317.021 104.168C316.355 102.692 315.651 101.258 314.926 99.8234H307.943V140.632H325.599C325.59 129.075 322.67 117.271 318.073 106.514L318.064 106.528ZM307.943 141.907V182.338C312.917 177.563 317.118 172.101 320.145 165.856C323.784 158.336 325.448 150.194 325.584 141.901L307.943 141.907ZM307.943 87.9243V98.5485H314.272C312.357 94.8912 310.248 91.3397 307.952 87.9096L307.943 87.9243ZM247.244 39.9383C246.778 39.7612 246.312 39.5812 245.844 39.407C240.903 37.5795 235.854 36.0597 230.725 34.8563L213.523 53.7645L213.193 54.1157L213.414 54.3577H274.638C266.111 48.4791 256.918 43.6339 247.252 39.9235L247.244 39.9383ZM276.432 55.6296H212.56L211.304 56.7806V98.5456H222.307H222.324H300.818V78.3153C293.718 69.7143 285.522 62.0825 276.441 55.6149L276.432 55.6296Z" fill="#E00000"/>
<path opacity="0.1" d="M33.9828 77.2706V98.5456H4.17236C4.17236 98.4217 4.19299 98.2948 4.20183 98.1708C4.22835 97.8314 4.25487 97.4921 4.28433 97.1556C4.31674 96.7602 4.3521 96.3618 4.39041 95.9751C4.42871 95.5885 4.46997 95.1164 4.51417 94.6884C4.55836 94.2605 4.59962 93.8267 4.64971 93.3988C4.6998 92.9709 4.744 92.5429 4.79704 92.118C4.85007 91.693 4.89722 91.2621 4.9532 90.8372C4.9974 90.483 5.04455 90.1318 5.09169 89.7777C5.15946 89.2789 5.23018 88.7772 5.30679 88.2814C5.30679 88.2077 5.32742 88.1309 5.3392 88.0601C5.87701 84.4306 6.6098 80.8329 7.5344 77.2824L33.9828 77.2706Z" fill="#E00000"/>
<path opacity="0.1" d="M4.0781 99.8086H33.9828V140.632H6.2674C6.19373 141.051 6.12301 141.473 6.0464 141.895H33.9828V174.818C33.9327 174.804 33.8885 174.786 33.8414 174.768C33.0517 174.455 32.2679 174.125 31.4841 173.771L30.9832 173.544C30.1975 173.172 29.4117 172.778 28.626 172.363C28.3519 172.218 28.0779 172.068 27.8068 171.915C23.4447 169.467 19.4819 166.366 16.0559 162.719C15.9557 162.621 15.8614 162.518 15.7612 162.424C15.2839 161.904 14.8154 161.379 14.3616 160.842L13.8607 160.252C13.3244 159.593 12.8058 158.918 12.302 158.233C12.2283 158.133 12.1576 158.032 12.081 157.938C10.0318 155.092 8.33029 152.011 7.01288 148.76C6.97163 148.662 6.93627 148.556 6.89796 148.465C6.4933 147.422 6.1348 146.369 5.82246 145.307C5.68692 144.861 5.55727 144.421 5.4453 143.958C5.40405 143.822 5.36869 143.69 5.33628 143.557C3.66263 137.014 3.46521 130.217 3.46521 123.468C3.46521 122.68 3.46521 121.889 3.46521 121.107C3.46521 118.377 3.49762 115.63 3.54477 112.885C3.54477 112.174 3.57423 111.466 3.58897 110.752C3.63022 108.94 3.68915 107.127 3.76576 105.315C3.78344 104.811 3.80701 104.309 3.83353 103.807C3.83353 103.518 3.84826 103.229 3.87773 102.94C3.94845 101.889 4.00738 100.847 4.0781 99.8086Z" fill="#E00000"/>
<path opacity="0.1" d="M63.6076 61.7622V98.5456H41.1223V61.7622H44.3282V49.3082H57.4876V61.7622H63.6076Z" fill="#E00000"/>
<path opacity="0.1" d="M63.6076 99.8057H41.1252V140.629H63.6076V99.8057Z" fill="#E00000"/>
<path opacity="0.1" d="M41.1223 141.895H63.6076V175.834C60.9552 176.597 58.2524 177.172 55.5192 177.554L54.8474 177.637C54.5174 177.675 54.1903 177.708 53.8662 177.74C53.5421 177.773 53.2062 177.796 52.8791 177.817H52.776C52.6346 177.817 52.4813 177.835 52.3428 177.838H52.1926C52.0158 177.838 51.839 177.855 51.6622 177.861C51.4117 177.876 51.1613 177.879 50.9049 177.882C50.7959 177.882 50.6928 177.882 50.5837 177.882C50.3303 177.882 50.0799 177.882 49.8265 177.882H49.2696C49.1193 177.882 48.9749 177.882 48.8187 177.882L48.2501 177.861C47.9554 177.861 47.6372 177.829 47.3307 177.808L46.765 177.767L46.0608 177.702C45.5657 177.658 45.0737 177.602 44.5875 177.534L43.9982 177.451L43.7035 177.41C43.2114 177.333 42.7252 177.25 42.2302 177.156C41.8678 177.094 41.5083 177.017 41.1429 176.943L41.1223 141.895Z" fill="#E00000"/>
<path opacity="0.1" d="M204.162 57.418H185.622V98.5426H204.162V57.418Z" fill="#E00000"/>
<path opacity="0.1" d="M204.165 99.8057V140.632H112.141V123.023H161.157V133.411H185.622V99.8057H204.165Z" fill="#E00000"/>
<path opacity="0.1" d="M204.456 185.667H204.162V212.449C200.842 212.168 197.532 211.785 194.232 211.301C179.374 209.122 164.89 204.889 151.194 198.723C147.24 196.94 143.366 194.995 139.573 192.886C133.237 189.37 127.166 185.394 121.41 180.989C119.965 179.88 118.537 178.745 117.129 177.584C116.154 176.778 115.184 175.952 114.203 175.149C113.522 174.597 112.836 174.054 112.141 173.535V141.895H185.377C185.327 141.706 185.277 141.517 185.224 141.332C185.28 141.517 185.333 141.706 185.383 141.895H204.162V185.649C204.262 185.652 204.359 185.661 204.456 185.667Z" fill="#E00000"/>
<path opacity="0.1" d="M252.515 54.3546H240.434V50.5948H245.85V39.3951C246.319 39.5663 246.787 39.7424 247.252 39.9234V50.5948H252.515V54.3546Z" fill="#E00000"/>
<path opacity="0.1" d="M281.621 98.5455H222.313C222.313 98.5455 222.313 98.5455 222.333 98.5603L222.307 98.5455H211.304V57.421H214.422V87.818H228.668V69.8159H240.437V55.6178H252.518V69.8277H264.286V87.8298H281.621V98.5455Z" fill="#E00000"/>
<path opacity="0.1" d="M211.304 99.8057V140.632H281.621V99.8057H211.304ZM300.709 188.689L300.806 156.374H281.621V141.913H211.304V212.889C217.069 213.131 222.843 213.062 228.601 212.682H228.701C231.451 212.509 234.188 212.257 236.913 211.927H236.975C251.51 210.232 265.723 206.434 279.17 200.65" fill="#E00000"/>
<path opacity="0.1" d="M309.192 141.895H325.596C325.451 150.185 323.789 158.327 320.153 165.847C317.127 172.095 312.923 177.557 307.955 182.329V156.359H309.192V141.895Z" fill="#E00000"/>
<path opacity="0.1" d="M325.605 140.632H309.192V106.514H318.073C322.67 117.271 325.59 129.075 325.605 140.632Z" fill="#E00000"/>
<path opacity="0.1" d="M204.165 68.8508H194.232V81.7445H204.165V68.8508Z" fill="#E00000"/>
<path opacity="0.1" d="M204.165 95.5767H194.232V98.5455H204.165V95.5767Z" fill="#E00000"/>
<path opacity="0.1" d="M204.165 99.8057H194.232V108.467H204.165V99.8057Z" fill="#E00000"/>
<path opacity="0.1" d="M204.165 122.302H194.232V135.196H204.165V122.302Z" fill="#E00000"/>
<path opacity="0.1" d="M204.165 149.028H194.232V161.922H204.165V149.028Z" fill="#E00000"/>
<path opacity="0.1" d="M204.162 185.649C204.262 185.649 204.359 185.649 204.456 185.667H204.162V188.662H194.232V175.754H204.162V185.649Z" fill="#E00000"/>
<path opacity="0.1" d="M204.162 202.474V212.434C200.842 212.153 197.532 211.77 194.232 211.286V202.474H204.162Z" fill="#E00000"/>
<path opacity="0.1" d="M154.71 139.685H112.141V140.632H154.71V139.685Z" fill="#E00000"/>
<path opacity="0.1" d="M154.71 141.892H112.141V145.522H154.71V141.892Z" fill="#E00000"/>
<path opacity="0.1" d="M154.71 157.421H112.141V163.259H154.71V157.421Z" fill="#E00000"/>
<path opacity="0.1" d="M154.707 175.158V180.995H121.41C119.965 179.89 118.536 178.754 117.126 177.59C116.151 176.784 115.184 175.958 114.2 175.158H154.707Z" fill="#E00000"/>
<path opacity="0.1" d="M154.707 192.892V198.723H151.191C147.241 196.939 143.368 194.992 139.573 192.883L154.707 192.892Z" fill="#E00000"/>
<path opacity="0.1" d="M236.984 103.763H228.604V112.156H236.984V103.763Z" fill="#E00000"/>
<path opacity="0.1" d="M55.5398 64.6572H47.1598V73.0504H55.5398V64.6572Z" fill="#E00000"/>
<path opacity="0.1" d="M55.5398 84.1527H47.1598V92.5459H55.5398V84.1527Z" fill="#E00000"/>
<path opacity="0.1" d="M55.5398 103.648H47.1598V112.041H55.5398V103.648Z" fill="#E00000"/>
<path opacity="0.1" d="M55.5398 123.141H47.1598V131.534H55.5398V123.141Z" fill="#E00000"/>
<path opacity="0.1" d="M55.5398 142.636H47.1598V151.029H55.5398V142.636Z" fill="#E00000"/>
<path opacity="0.1" d="M55.5398 162.131H47.1598V170.525H55.5398V162.131Z" fill="#E00000"/>
<path opacity="0.1" d="M268.975 103.763H260.594V112.156H268.975V103.763Z" fill="#E00000"/>
<path opacity="0.1" d="M236.984 124.466H228.604V132.859H236.984V124.466Z" fill="#E00000"/>
<path opacity="0.1" d="M268.975 124.466H260.594V132.859H268.975V124.466Z" fill="#E00000"/>
<path opacity="0.1" d="M236.984 145.165H228.604V153.558H236.984V145.165Z" fill="#E00000"/>
<path opacity="0.1" d="M268.975 145.165H260.594V153.558H268.975V145.165Z" fill="#E00000"/>
<path opacity="0.1" d="M236.984 165.868H228.604V174.261H236.984V165.868Z" fill="#E00000"/>
<path opacity="0.1" d="M268.975 165.868H260.594V174.261H268.975V165.868Z" fill="#E00000"/>
<path opacity="0.1" d="M236.984 186.57H228.604V194.963H236.984V186.57Z" fill="#E00000"/>
<path opacity="0.1" d="M268.975 186.57H260.594V194.963H268.975V186.57Z" fill="#E00000"/>
<path opacity="0.1" d="M228.604 212.682V207.27H236.981V211.912L228.604 212.682Z" fill="#E00000"/>
<path opacity="0.1" d="M5.30383 88.0541V92.8556H33.9828V88.0541H5.30383ZM8.162 92.5546H5.82243V88.3492H8.17968L8.162 92.5546ZM11.0172 92.5546H8.65997V88.3492H11.0172V92.5546ZM13.8666 92.5546H11.5093V88.3492H13.8666V92.5546ZM16.7218 92.5546H14.3675V88.3492H16.7247L16.7218 92.5546ZM19.5741 92.5546H17.2168V88.3492H19.5741V92.5546ZM22.4293 92.5546H20.072V88.3492H22.4293V92.5546ZM25.2845 92.5546H22.9273V88.3492H25.2845V92.5546ZM28.1368 92.5546H25.7795V88.3492H28.1368V92.5546ZM30.9891 92.5546H28.6318V88.3492H30.9891V92.5546ZM33.8413 92.5546H31.4841V88.3492H33.8413V92.5546Z" fill="#E00000"/>
<path opacity="0.1" d="M5.30383 102.025V106.826H33.9828V102.025H5.30383ZM8.162 106.522H5.82243V102.329H8.17968L8.162 106.522ZM11.0172 106.522H8.65997V102.329H11.0172V106.522ZM13.8666 106.522H11.5093V102.329H13.8666V106.522ZM16.7218 106.522H14.3675V102.329H16.7247L16.7218 106.522ZM19.5741 106.522H17.2168V102.329H19.5741V106.522ZM22.4293 106.522H20.072V102.329H22.4293V106.522ZM25.2845 106.522H22.9273V102.329H25.2845V106.522ZM28.1368 106.522H25.7795V102.329H28.1368V106.522ZM30.9891 106.522H28.6318V102.329H30.9891V106.522ZM33.8413 106.522H31.4841V102.329H33.8413V106.522Z" fill="#E00000"/>
<path opacity="0.1" d="M5.30383 116.002V120.812H33.9828V116.002H5.30383ZM8.162 120.499H5.82243V116.303H8.17968L8.162 120.499ZM11.0172 120.499H8.65997V116.303H11.0172V120.499ZM13.8666 120.499H11.5093V116.303H13.8666V120.499ZM16.7218 120.499H14.3675V116.303H16.7247L16.7218 120.499ZM19.5741 120.499H17.2168V116.303H19.5741V120.499ZM22.4293 120.499H20.072V116.303H22.4293V120.499ZM25.2845 120.499H22.9273V116.303H25.2845V120.499ZM28.1368 120.499H25.7795V116.303H28.1368V120.499ZM30.9891 120.499H28.6318V116.303H30.9891V120.499ZM33.8413 120.499H31.4841V116.303H33.8413V120.499Z" fill="#E00000"/>
<path opacity="0.1" d="M5.30383 129.978V134.774H33.9828V129.978H5.30383ZM8.162 134.476H5.82243V130.276H8.17968L8.162 134.476ZM11.0172 134.476H8.65997V130.276H11.0172V134.476ZM13.8666 134.476H11.5093V130.276H13.8666V134.476ZM16.7218 134.476H14.3675V130.276H16.7247L16.7218 134.476ZM19.5741 134.476H17.2168V130.276H19.5741V134.476ZM22.4293 134.476H20.072V130.276H22.4293V134.476ZM25.2845 134.476H22.9273V130.276H25.2845V134.476ZM28.1368 134.476H25.7795V130.276H28.1368V134.476ZM30.9891 134.476H28.6318V130.276H30.9891V134.476ZM33.8413 134.476H31.4841V130.276H33.8413V134.476Z" fill="#E00000"/>
<path opacity="0.1" d="M5.42761 143.952C5.54253 144.404 5.67218 144.855 5.80772 145.301V144.253H8.16497V148.45H6.90384C6.94215 148.547 6.98045 148.653 7.01876 148.745H33.9828V143.952H5.42761ZM11.0261 148.45H8.66884V144.253H11.0261V148.45ZM13.8754 148.45H11.5182V144.253H13.8754V148.45ZM16.7306 148.45H14.3675V144.253H16.7247L16.7306 148.45ZM19.5829 148.45H17.2257V144.253H19.5829V148.45ZM22.4381 148.45H20.0809V144.253H22.4381V148.45ZM25.2934 148.45H22.9361V144.253H25.2934V148.45ZM28.1456 148.45H25.7884V144.253H28.1456V148.45ZM30.9979 148.45H28.6407V144.253H30.9979V148.45ZM33.8502 148.45H31.4929V144.253H33.8502V148.45Z" fill="#E00000"/>
<path opacity="0.1" d="M12.0868 157.929C12.1605 158.023 12.2312 158.13 12.3078 158.224H13.8665V160.24C14.0345 160.44 14.1995 160.641 14.3704 160.83V158.212H16.7276V162.424H15.7729C15.8672 162.521 15.9586 162.624 16.0676 162.719H33.9916V157.929H12.0868ZM19.574 162.424H17.2168V158.23H19.574V162.424ZM22.4292 162.424H20.072V158.23H22.4292V162.424ZM25.2845 162.424H22.9272V158.23H25.2845V162.424ZM28.1367 162.424H25.7795V158.23H28.1367V162.424ZM30.989 162.424H28.6318V158.23H30.989V162.424ZM33.8413 162.424H31.484V158.23H33.8413V162.424Z" fill="#E00000"/>
<path opacity="0.1" d="M27.8185 171.903C28.0866 172.056 28.3606 172.198 28.6376 172.351V172.204H30.9949V173.532L31.4958 173.765V172.204H33.8531V174.756C33.8983 174.779 33.9457 174.797 33.9945 174.81V171.903H27.8185Z" fill="#E00000"/>
<path opacity="0.1" d="M222.313 98.5455H222.33H222.313ZM204.162 185.646H204.456H204.162ZM185.224 141.329C185.28 141.518 185.327 141.706 185.38 141.892C185.333 141.706 185.283 141.518 185.224 141.329ZM222.313 98.5367H222.33H222.313ZM44.34 54.3458V55.606H57.5023V54.3458H44.34ZM204.162 185.646H204.456H204.162ZM185.224 141.329C185.28 141.518 185.327 141.706 185.38 141.892C185.333 141.706 185.283 141.518 185.224 141.329ZM222.313 98.5367H222.33H222.313ZM204.162 185.638H204.456H204.162ZM185.224 141.329C185.28 141.518 185.327 141.706 185.38 141.892C185.333 141.706 185.283 141.518 185.224 141.329Z" fill="#E00000"/>
<path d="M136.013 112.047C136.013 112.047 134.853 111.885 134.853 110.191C134.853 108.497 134.022 105.333 134.022 105.333C134.022 105.318 133.303 99.8234 132.31 98.9498C131.317 98.0763 130.041 92.9472 130.041 92.9472C130.041 92.9472 129.823 90.1642 129.378 89.5651C128.933 88.966 128.332 87.4993 127.445 85.4069C126.558 83.3145 122.86 81.8655 122.86 81.8655C122.86 81.8655 116.174 77.9818 114.28 76.7157C114.107 76.6117 113.946 76.49 113.799 76.3527C113.469 75.9189 112.031 75.91 112.031 75.91C111.881 74.9598 111.737 73.8678 111.69 72.8792C111.69 72.7729 111.69 72.6667 111.675 72.5605C113.787 71.3097 115.379 69.3376 116.157 67.0064C116.192 66.8942 116.221 66.7762 116.254 66.664C116.38 66.6222 116.497 66.5545 116.596 66.465C116.695 66.3756 116.774 66.2665 116.828 66.1446C116.999 65.7639 117.002 65.3183 117.214 64.9641C117.462 64.5451 117.933 64.3208 118.305 64.005C119.242 63.2082 119.483 61.8654 119.439 60.6436C119.41 59.655 119.25 58.6575 119.312 57.6747L119.33 57.4268C119.348 57.2793 119.368 57.1317 119.395 56.9901C119.539 56.2582 119.855 55.5676 120.031 54.8416C120.208 54.1156 120.226 53.2982 119.813 52.6725C119.209 51.7547 117.951 51.5717 116.846 51.4773C115.594 51.371 114.474 51.5097 113.673 50.468C113.298 49.9235 112.876 49.413 112.411 48.9422C112.246 48.7888 110.644 47.809 110.644 47.7441C109.079 47.0183 107.306 46.8821 105.649 47.3604C104.818 47.6024 104.034 47.9979 103.192 48.1956C101.374 48.6265 99.2816 48.1602 97.7376 49.2019C96.8772 49.7922 96.3615 50.7306 95.8783 51.6455C95.4854 52.399 95.0866 53.1516 94.682 53.9031C94.0308 55.1397 93.3678 56.3969 93.0938 57.7662C93.0362 58.0642 93.0007 58.3661 92.9877 58.6693V58.684C92.9877 58.7932 92.9877 58.9024 92.9877 59.0116V59.1503C92.9877 59.2536 92.9877 59.354 93.0054 59.4454C93.0231 59.5369 93.0201 59.5664 93.029 59.6284C93.0378 59.6904 93.0525 59.8291 93.0702 59.9235C93.0879 60.018 93.1232 60.1832 93.1586 60.3131C93.1733 60.3692 93.194 60.4223 93.2116 60.4754C93.2411 60.5757 93.2765 60.6731 93.3148 60.7705C93.3354 60.8207 93.356 60.8738 93.3796 60.924C93.4238 61.0273 93.4768 61.1276 93.5299 61.2191C93.5534 61.2604 93.5711 61.2988 93.5947 61.3372C93.6769 61.4744 93.7674 61.6065 93.8658 61.7326C94.4963 62.5206 95.4245 63.0223 96.1111 63.7601C96.1111 63.7896 96.1111 63.8191 96.1111 63.8456C96.1111 63.9283 96.1111 64.008 96.1111 64.0906C96.1475 65.736 96.5848 67.3476 97.3849 68.7852C98.1849 70.2228 99.3236 71.4428 100.702 72.3391C100.702 72.4513 100.717 72.5664 100.722 72.6785C100.78 73.5545 100.769 74.4337 100.69 75.308C100.57 75.1665 100.42 75.0537 100.251 74.9781C100.081 74.9025 99.8971 74.866 99.7118 74.8712C99.5852 74.865 99.4583 74.876 99.3346 74.9037L99.3081 74.883V74.9096C98.6598 75.069 97.8613 75.7448 97.0982 77.666C97.0982 77.666 94.7763 80.2866 93.0083 80.1774C91.2404 80.0682 86.7646 82.9043 86.7646 82.9043C86.7646 82.9043 82.3977 85.7433 81.4607 88.6355C80.937 90.2755 80.3091 91.8803 79.5808 93.44L74.1827 104.581L73.1868 113.419C73.1868 113.419 73.7378 117.35 73.6288 117.949C73.5197 118.549 75.8947 123.952 75.8947 123.952C75.8947 123.952 83.7414 137.761 86.9472 138.469L87.1771 138.307C87.3142 138.378 87.4597 138.433 87.6102 138.469L88.2702 138.003C88.3099 138.522 88.2931 139.045 88.2202 139.561C87.7782 140.924 88.3852 149.822 89.1572 151.566C89.9292 153.31 89.6551 176.179 89.6551 176.179L89.5461 178.198C89.5461 178.198 89.5461 178.263 89.5726 178.375L89.5461 178.853L89.6257 178.894C89.7083 179.534 89.6814 180.184 89.5461 180.815C89.2691 181.701 89.1572 184.203 89.1572 184.203C89.1572 184.203 86.9502 198.334 87.9962 201.173C89.0423 204.012 89.9321 207.122 89.9321 207.122C89.9321 207.122 91.0371 210.664 89.9852 211.268C88.9332 211.873 85.9425 212.889 86.5583 214.364C87.1181 215.728 89.2426 219.381 89.5579 219.915L89.5314 220.196L89.0982 224.897C89.1684 225.518 89.3365 226.123 89.5962 226.691C90.0706 227.715 90.9929 228.778 92.7461 228.663C93.0407 228.642 93.3825 228.607 93.7126 228.562C96.9214 228.131 100.873 226.697 100.873 226.697C100.668 226.567 100.48 226.411 100.313 226.234C100.155 226.081 100.03 225.897 99.9456 225.694C99.861 225.491 99.8185 225.273 99.8208 225.053C99.8679 224.198 98.268 220.119 97.8702 219.116C97.8083 218.971 97.7759 218.888 97.7759 218.888C97.7759 218.888 101.424 215.07 100.817 211.685C100.817 211.685 96.7799 209.324 98.1088 208.028C99.4377 206.733 101.813 203.011 101.813 203.011C101.813 203.011 101.922 189.096 101.813 187.019C101.699 185.577 101.767 184.126 102.016 182.701C102.06 182.486 102.113 182.276 102.169 182.07C104.007 182.344 105.862 182.485 107.721 182.492C108.398 182.492 109.088 182.492 109.783 182.45C109.783 182.647 109.792 182.86 109.81 183.088C109.963 186.535 110.249 192.579 110.481 194.825C110.811 198.044 112.635 206.721 112.635 206.721C112.635 206.721 109.156 208.958 113.242 214.471C113.242 214.471 113.242 216.468 112.971 216.758C112.682 217.703 112.449 218.665 112.273 219.638C112.102 220.677 112.031 221.727 112.308 222.273C112.971 223.578 116.949 223.472 116.949 223.472L117.046 223.454C117.797 223.376 118.556 223.449 119.279 223.667C120.002 223.885 120.674 224.245 121.257 224.726C122.769 225.942 128.506 225.408 131.611 225.021C132.828 224.867 133.642 224.726 133.642 224.726C133.681 224.588 133.695 224.444 133.683 224.301C133.65 223.537 133.052 221.86 128.998 220.364C128.998 220.364 125.185 217.796 125.238 215.559H125.158H124.716C125.038 215.542 125.244 215.559 125.244 215.559C125.244 215.559 123.75 210.1 124.36 209.657C124.97 209.214 123.143 203.165 123.143 203.165C123.143 203.165 122.097 193.013 122.041 192.301C122.043 191.691 122.136 191.084 122.315 190.501L122.041 184.935C122.041 184.935 121.988 183.085 122.041 182.483C122.032 181.96 121.99 181.439 121.914 180.922C121.888 180.715 121.861 180.5 121.832 180.287C123.261 179.924 124.189 179.588 124.189 179.588L124.024 160.213C125.238 157.852 125.462 152.673 125.456 148.999C125.456 146.638 125.35 144.891 125.35 144.891L127.009 142.179C127.009 142.179 127.392 138.932 126.785 138.221C126.517 137.899 126.638 137.566 126.858 137.291C126.973 137.2 127.094 137.117 127.221 137.044C127.221 137.044 127.203 137.017 127.183 136.979C127.298 136.882 127.422 136.794 127.551 136.716C127.551 136.716 126.962 135.801 127.489 135.415C127.984 135.751 128.426 136.005 128.762 136.211C128.738 136.427 128.715 136.551 128.715 136.551L128.856 136.256C129.18 136.439 129.378 136.551 129.378 136.551C129.378 136.551 131.977 131.366 131.921 130.601C131.865 129.837 133.689 126.617 133.689 126.617C133.689 126.617 133.91 124.926 134.906 124.218C135.902 123.509 135.678 118.377 135.678 118.377C135.678 118.377 135.955 115.704 136.618 114.612C137.281 113.52 136.013 112.047 136.013 112.047ZM86.2872 109.772L86.3373 111.008C86.0426 110.533 85.8305 110.191 85.8305 110.191L86.2872 109.772Z" fill="url(#paint0_linear)"/>
<path d="M129.519 134.311L128.883 137.026C128.883 137.026 123.785 134.42 122.866 131.109C121.947 127.797 124.404 126.54 124.404 126.54L129.154 128.556L129.519 134.311Z" fill="white"/>
<path opacity="0.1" d="M129.519 134.311L128.883 137.026C128.883 137.026 123.785 134.42 122.866 131.109C121.947 127.797 124.404 126.54 124.404 126.54L129.154 128.556L129.519 134.311Z" fill="black"/>
<path d="M100.911 226.715C100.911 226.715 96.1965 228.45 92.9553 228.669C91.2345 228.784 90.3299 227.727 89.8644 226.709C89.61 226.143 89.446 225.54 89.3782 224.924L89.7995 220.246L90.0235 217.755L96.9096 215.964L97.8849 218.95L97.9762 219.178C98.3681 220.175 99.9387 224.233 99.8915 225.08C99.8896 225.297 99.9314 225.512 100.014 225.712C100.097 225.912 100.22 226.094 100.375 226.246C100.533 226.424 100.713 226.582 100.911 226.715Z" fill="white"/>
<path d="M133.114 224.336C133.126 224.478 133.112 224.621 133.073 224.758C133.073 224.758 122.99 226.443 120.927 224.758C120.346 224.266 119.668 223.901 118.937 223.686C118.206 223.472 117.439 223.413 116.684 223.513C116.684 223.513 112.783 223.619 112.132 222.332C111.861 221.792 111.931 220.745 112.099 219.712C112.271 218.744 112.499 217.787 112.783 216.846L112.939 216.722L113.867 215.976L124.734 215.654H124.817C124.764 217.879 128.506 220.432 128.506 220.432C132.481 221.907 133.067 223.575 133.114 224.336Z" fill="white"/>
<path opacity="0.1" d="M133.114 224.336C133.124 224.478 133.11 224.621 133.07 224.758C133.07 224.758 122.99 226.443 120.927 224.758C120.346 224.266 119.669 223.902 118.938 223.687C118.208 223.473 117.441 223.413 116.687 223.513C116.687 223.513 112.783 223.619 112.135 222.332C111.863 221.789 111.931 220.745 112.099 219.712C113.602 219.862 115.974 220.237 116.905 221.131C118.314 222.492 120.7 223.849 122.165 223.956C123.311 224.029 130.168 224.248 133.114 224.336Z" fill="black"/>
<path opacity="0.1" d="M100.911 226.715C100.911 226.715 96.1967 228.45 92.9554 228.669C91.2346 228.784 90.33 227.727 89.8674 226.706C91.0667 227.11 92.7315 227.535 93.6066 227.146C94.6438 226.685 98.3211 226.387 100.384 226.26C100.541 226.433 100.718 226.585 100.911 226.715Z" fill="black"/>
<path d="M107.906 86.8737C104.017 85.3597 99.0135 80.3575 100.263 78.0201C100.54 77.4303 100.705 76.7937 100.749 76.1432C100.829 75.2601 100.841 74.3721 100.784 73.4871C100.697 72.0378 100.523 70.5951 100.263 69.1666C100.263 69.1666 112.406 69.4411 111.698 71.2324C111.492 71.7578 111.46 72.6697 111.516 73.6908C111.572 74.7119 111.719 75.8658 111.872 76.8426C112.084 78.1825 112.297 79.2036 112.297 79.2036C112.297 79.2036 111.554 80.2453 111.118 80.3014C110.682 80.3575 113.487 89.031 107.906 86.8737Z" fill="#CF6F80"/>
<path opacity="0.1" d="M97.9675 219.178L97.8761 219.278C94.246 214.881 89.8556 220.361 89.8556 220.361L89.7908 220.246L90.0147 217.755L96.9008 215.964L97.8761 218.95L97.9675 219.178Z" fill="black"/>
<path opacity="0.1" d="M124.82 215.964C124.82 215.964 122.168 215.908 120.753 217.159C119.339 218.41 112.503 217.43 112.798 217.159C112.885 217.024 112.938 216.87 112.951 216.71L113.879 215.964L124.746 215.642C124.787 215.84 124.82 215.964 124.82 215.964Z" fill="black"/>
<path d="M102.485 181.432C102.287 181.921 102.137 182.428 102.037 182.946C101.791 184.364 101.723 185.808 101.833 187.243C101.942 189.309 101.833 203.153 101.833 203.153C101.833 203.153 99.5027 206.845 98.2032 208.146C96.9038 209.448 100.855 211.785 100.855 211.785C101.444 215.149 97.8732 218.95 97.8732 218.95C94.243 214.553 89.8527 220.036 89.8527 220.036C89.8527 220.036 87.4659 215.905 86.8707 214.429C86.2755 212.954 89.2015 211.932 90.2298 211.333C91.2582 210.734 90.1797 207.202 90.1797 207.202C90.1797 207.202 89.3105 204.106 88.2792 201.282C87.2479 198.457 89.4166 184.398 89.4166 184.398C89.4166 184.398 89.5285 181.901 89.7967 181.031C89.932 180.402 89.9589 179.756 89.8762 179.118C89.8585 178.903 89.8379 178.723 89.8232 178.602C89.8085 178.481 89.7967 178.425 89.7967 178.425L89.8379 178.354L91.3112 175.604C91.3112 175.604 103.192 179.7 102.485 181.432Z" fill="#E00000"/>
<path d="M124.82 215.639C124.82 215.639 122.168 215.583 120.753 216.82C119.339 218.056 112.503 217.091 112.798 216.82C113.092 216.548 113.069 214.538 113.069 214.538C109.058 209.055 112.479 206.83 112.479 206.83C112.479 206.83 110.688 198.198 110.364 194.996C110.137 192.759 109.857 186.747 109.707 183.315C109.642 181.839 109.604 180.824 109.604 180.824L112.88 180.163L113.301 180.077L121.204 178.49C121.204 178.49 121.422 179.965 121.57 181.172C121.643 181.688 121.684 182.207 121.693 182.728C121.64 183.318 121.693 185.165 121.693 185.165L121.961 190.705C121.786 191.286 121.696 191.889 121.693 192.496C121.746 193.201 122.775 203.3 122.775 203.3C122.775 203.3 124.563 209.327 123.953 209.76C123.343 210.194 124.82 215.639 124.82 215.639Z" fill="#E00000"/>
<path opacity="0.1" d="M111.698 71.2324C111.492 71.7578 111.46 72.6697 111.516 73.6908C109.889 74.6717 108.019 75.1733 106.121 75.1378C104.223 75.1023 102.373 74.5312 100.784 73.4901C100.697 72.0398 100.523 70.5961 100.263 69.1666C100.263 69.1666 112.406 69.4352 111.698 71.2324Z" fill="black"/>
<path d="M116.392 64.7103C116.395 65.7737 116.228 66.8308 115.897 67.8415C115.159 70.1061 113.645 72.0364 111.624 73.2913C109.602 74.5462 107.202 75.0448 104.849 74.6991C102.495 74.3533 100.34 73.1854 98.763 71.4019C97.1862 69.6183 96.2897 67.3338 96.2319 64.9523C96.2319 64.8696 96.2319 64.7929 96.2319 64.7103C96.2091 63.3697 96.4529 62.038 96.9493 60.7929C97.4457 59.5477 98.1846 58.414 99.1231 57.4579C100.062 56.5018 101.181 55.7424 102.415 55.2241C103.65 54.7057 104.975 54.4387 106.314 54.4387C107.652 54.4387 108.978 54.7057 110.212 55.2241C111.447 55.7424 112.566 56.5018 113.504 57.4579C114.443 58.414 115.182 59.5477 115.678 60.7929C116.174 62.038 116.418 63.3697 116.395 64.7103H116.392Z" fill="#CF6F80"/>
<path opacity="0.1" d="M107.906 86.8737C104.017 85.3597 99.0135 80.3575 100.263 78.0201C100.54 77.4303 100.705 76.7937 100.749 76.1432L106.073 80.5257L109.368 83.2319L111.872 76.8456C112.084 78.1854 112.297 79.2065 112.297 79.2065C112.297 79.2065 111.554 80.2483 111.118 80.3043C110.682 80.3604 113.487 89.031 107.906 86.8737Z" fill="black"/>
<path d="M121.676 106.242L117.229 181.054L111.43 181.435L96.4147 138.056L98.878 86.5549L99.3966 75.674L106.074 81.1661L109.371 83.8723L111.949 77.3L116.743 81.4848L121.676 106.242Z" fill="#E00000"/>
<path opacity="0.1" d="M102.485 181.432C102.287 181.921 102.137 182.428 102.037 182.946C97.8171 182.294 93.7191 181.011 89.8791 179.142L89.7996 179.101L89.8261 178.626L89.8408 178.378L91.3141 175.627C91.3141 175.627 103.192 179.7 102.485 181.432Z" fill="black"/>
<path opacity="0.1" d="M112.948 182.958C111.869 183.142 110.781 183.266 109.689 183.33C109.624 181.854 109.586 180.839 109.586 180.839L112.862 180.178L112.948 182.958Z" fill="black"/>
<path opacity="0.1" d="M121.552 181.187C119.457 181.733 116.221 182.347 113.325 181.963L113.284 180.092L121.186 178.505C121.186 178.505 121.404 179.965 121.552 181.187Z" fill="black"/>
<path opacity="0.1" d="M113.272 182.306C101.191 184.371 90.1267 178.448 90.1267 178.448L90.2328 176.442C90.2328 176.442 90.5068 153.691 89.7466 151.947C88.9864 150.203 88.3941 141.358 88.8243 140.001C89.2545 138.643 87.2538 118.286 87.2538 118.286L86.9297 110.023L75.0668 105.209L80.3706 94.1365C81.087 92.584 81.7031 90.9871 82.2152 89.3556C83.1374 86.4811 87.4188 83.6568 87.4188 83.6568C87.4188 83.6568 91.8092 80.8355 93.5447 80.9418C95.2802 81.048 97.555 78.4451 97.555 78.4451C99.2345 74.157 100.755 76.0989 100.755 76.0989C100.755 76.3025 100.755 76.0989 100.672 76.7334C100.083 81.4405 110.202 96.3144 110.346 96.5771L111.31 120.086L112.285 149.837L113.272 182.306Z" fill="black"/>
<path d="M112.948 182.306C100.867 184.371 89.7996 178.448 89.7996 178.448L89.9086 176.442C89.9086 176.442 90.1826 153.691 89.4195 151.947C88.6563 150.203 88.067 141.358 88.5001 140.001C88.9333 138.643 86.9296 118.286 86.9296 118.286L86.6025 110.023L74.7338 105.192L80.0376 94.1188C80.7524 92.5656 81.3685 90.9688 81.8821 89.3379C82.8015 86.4634 87.0858 83.6391 87.0858 83.6391C87.0858 83.6391 91.4762 80.8178 93.2087 80.9241C94.9413 81.0303 97.219 78.4274 97.219 78.4274C98.9015 74.1393 100.755 76.0812 100.755 76.0812C100.755 76.2848 100.578 76.3763 100.672 76.7157C101.969 81.2812 109.877 96.2967 110.022 96.5594L110.997 120.068L111.972 149.819L112.948 182.306Z" fill="white"/>
<path opacity="0.1" d="M109.692 97.2293C108.392 96.6863 101.509 88.8155 101.509 88.8155V87.0242C101.259 86.4339 99.7707 86.794 98.5626 87.2071L99.0812 76.3262L99.6705 76.8161C100.961 81.3786 109.542 96.9667 109.692 97.2293Z" fill="black"/>
<path d="M110.019 96.5771C108.717 96.0341 101.833 88.1633 101.833 88.1633V86.3719C101.583 85.7817 100.095 86.1418 98.8868 86.5549L99.4084 75.674L99.9977 76.1638C101.291 80.7264 109.875 96.3174 110.019 96.5771Z" fill="white"/>
<path opacity="0.1" d="M90.1266 135.831C90.2887 135.831 98.5273 134.963 98.5273 134.963C98.5273 134.963 103.516 144.787 103.189 147.178C102.862 149.568 102.269 151.684 100.263 151.309C98.2562 150.935 89.4636 151.605 89.4636 151.605L90.1266 135.831Z" fill="black"/>
<path d="M89.7996 135.178C89.9616 135.178 98.2002 134.311 98.2002 134.311C98.2002 134.311 103.186 144.138 102.862 146.526C102.538 148.913 101.939 151.032 99.9358 150.657C97.9321 150.283 89.1366 150.952 89.1366 150.952L89.7996 135.178Z" fill="white"/>
<path d="M96.008 130.566C96.008 130.566 103.569 134.635 103.731 135.878C103.893 137.12 99.8827 135.335 99.0164 135.119C98.4463 134.982 97.8658 134.891 97.2809 134.848L91.5027 135.004L96.008 130.566Z" fill="#CF6F80"/>
<path opacity="0.1" d="M107.582 97.7368C108.021 97.7368 108.378 97.3801 108.378 96.94C108.378 96.4999 108.021 96.1432 107.582 96.1432C107.143 96.1432 106.786 96.4999 106.786 96.94C106.786 97.3801 107.143 97.7368 107.582 97.7368Z" fill="black"/>
<path d="M107.582 97.4122C108.021 97.4122 108.378 97.0555 108.378 96.6154C108.378 96.1754 108.021 95.8186 107.582 95.8186C107.143 95.8186 106.786 96.1754 106.786 96.6154C106.786 97.0555 107.143 97.4122 107.582 97.4122Z" fill="#3F3D56"/>
<path opacity="0.1" d="M109.047 132.23C109.486 132.23 109.842 131.873 109.842 131.433C109.842 130.993 109.486 130.637 109.047 130.637C108.607 130.637 108.251 130.993 108.251 131.433C108.251 131.873 108.607 132.23 109.047 132.23Z" fill="black"/>
<path d="M109.047 131.903C109.486 131.903 109.842 131.546 109.842 131.106C109.842 130.666 109.486 130.309 109.047 130.309C108.607 130.309 108.251 130.666 108.251 131.106C108.251 131.546 108.607 131.903 109.047 131.903Z" fill="#3F3D56"/>
<path opacity="0.1" d="M108.375 114.984C108.814 114.984 109.17 114.627 109.17 114.187C109.17 113.747 108.814 113.39 108.375 113.39C107.935 113.39 107.579 113.747 107.579 114.187C107.579 114.627 107.935 114.984 108.375 114.984Z" fill="black"/>
<path d="M108.375 114.659C108.814 114.659 109.17 114.302 109.17 113.862C109.17 113.422 108.814 113.065 108.375 113.065C107.935 113.065 107.579 113.422 107.579 113.862C107.579 114.302 107.935 114.659 108.375 114.659Z" fill="#3F3D56"/>
<path d="M126.714 134.683C126.714 134.683 127.256 135.497 126.714 135.878C126.172 136.259 126.767 137.179 126.767 137.179C126.767 137.179 125.415 137.973 126.01 138.687C126.605 139.402 126.228 142.627 126.228 142.627L124.601 145.325C124.601 145.325 124.699 147.063 124.705 149.412C124.705 153.077 124.49 158.23 123.299 160.579L123.464 179.853C123.464 179.853 117.768 181.937 113.001 181.302L112.294 150.374C112.294 150.374 113.325 132.835 113.705 129.471C113.928 127.724 114.018 125.963 113.976 124.203C113.976 124.203 113.814 118.938 113.269 116.495C113.269 116.495 112.68 105.909 112.621 102.978C112.594 101.576 112.668 97.4861 112.75 93.5965C112.842 89.3438 112.945 85.3332 112.945 85.3332L111.869 76.8102C111.869 76.8102 112.945 76.701 113.269 77.1348C113.414 77.2707 113.572 77.3922 113.74 77.4978C115.597 78.755 122.156 82.6211 122.156 82.6211C122.156 82.6211 125.786 84.0672 126.655 86.1389C127.524 88.2106 128.129 89.6803 128.55 90.2705C128.971 90.8608 129.201 93.6349 129.201 93.6349C129.201 93.6349 130.45 98.7404 131.426 99.6051C132.401 100.47 133.114 105.971 133.114 105.971L124.495 112.758C124.495 112.758 123.738 124.05 123.576 124.486C123.414 124.923 126.714 134.683 126.714 134.683Z" fill="white"/>
<path d="M127.041 134.683C127.041 134.683 127.58 135.497 127.041 135.878C126.502 136.259 127.091 137.179 127.091 137.179C127.091 137.179 125.748 137.982 126.337 138.696C126.926 139.41 126.555 142.636 126.555 142.636L124.929 145.333C124.929 145.333 125.026 147.072 125.035 149.421C125.035 153.086 124.82 158.239 123.629 160.588L123.791 179.862C123.791 179.862 118.087 181.946 113.325 181.311L112.621 150.383C112.621 150.383 113.652 132.844 114.032 129.48C114.255 127.733 114.344 125.972 114.3 124.212C114.3 124.212 114.138 118.947 113.596 116.503C113.596 116.503 113.007 105.918 112.945 102.987C112.918 101.585 112.995 97.4949 113.075 93.6052C113.166 89.3526 113.269 85.3419 113.269 85.3419L111.849 76.7039C111.849 76.7039 113.269 76.7039 113.596 77.1436C113.74 77.281 113.898 77.4027 114.068 77.5066C115.924 78.7638 122.486 82.6298 122.486 82.6298C122.486 82.6298 126.113 84.0759 126.982 86.1476C127.852 88.2193 128.456 89.689 128.88 90.2792C129.304 90.8695 129.528 93.6436 129.528 93.6436C129.528 93.6436 130.778 98.7491 131.753 99.6138C132.728 100.479 133.432 105.968 133.432 105.968L124.814 112.755C124.814 112.755 124.056 124.047 123.891 124.483C123.726 124.92 127.041 134.683 127.041 134.683Z" fill="white"/>
<path opacity="0.1" d="M116.72 87.8475L117.497 90.1199L113.402 94.2516C113.493 90.0019 113.596 85.9883 113.596 85.9883L112.176 77.3502C112.176 77.3502 113.596 77.3502 113.923 77.7899C114.067 77.927 114.225 78.0478 114.395 78.15L117.878 88.2135L116.72 87.8475Z" fill="black"/>
<path d="M116.392 87.1953L117.173 89.4677L113.077 93.5994C113.169 89.3467 113.272 85.3361 113.272 85.3361L111.849 76.698C111.849 76.698 113.272 76.698 113.596 77.1377C113.741 77.2743 113.899 77.396 114.068 77.5007L117.553 87.5613L116.392 87.1953Z" fill="white"/>
<path opacity="0.1" d="M116.392 64.7103C116.395 65.7737 116.228 66.8308 115.897 67.8415C115.842 67.8502 115.785 67.8476 115.73 67.8339C115.676 67.8202 115.624 67.7957 115.579 67.7618C115.503 65.1057 114.197 62.612 112.591 60.4901C112.14 59.8494 111.594 59.2821 110.971 58.8079C110.341 58.334 109.557 58.112 108.773 58.1852C107.889 58.3062 107.108 58.9083 106.215 58.985C105.036 59.0824 103.981 58.2649 102.812 58.2236C102.336 58.2281 101.867 58.3342 101.436 58.5347C101.004 58.7352 100.62 59.0255 100.31 59.3863C99.6955 60.1145 99.2389 60.9627 98.9693 61.8771C98.506 63.2637 98.2537 64.7123 98.2209 66.174C98.2061 67.0004 98.1266 68.0362 97.3605 68.3373C97.4182 67.7295 97.3492 67.1165 97.158 66.5368C96.9668 65.9572 96.6574 65.4236 96.2496 64.97L96.2319 64.9523C96.2319 64.8696 96.2319 64.7929 96.2319 64.7103C96.2091 63.3697 96.4529 62.038 96.9493 60.7929C97.4457 59.5477 98.1846 58.414 99.1231 57.4579C100.062 56.5018 101.181 55.7424 102.415 55.2241C103.65 54.7057 104.975 54.4387 106.314 54.4387C107.652 54.4387 108.978 54.7057 110.212 55.2241C111.447 55.7424 112.566 56.5018 113.504 57.4579C114.443 58.414 115.182 59.5477 115.678 60.7929C116.174 62.038 116.418 63.3697 116.395 64.7103H116.392Z" fill="black"/>
<path d="M110.487 48.6766C108.956 47.9552 107.215 47.8188 105.59 48.2929C104.774 48.5349 104.005 48.9274 103.177 49.1252C101.409 49.5531 99.3465 49.0897 97.829 50.1256C96.9863 50.7158 96.4795 51.6484 96.008 52.5544L94.8294 54.8032C94.187 56.0338 93.5388 57.2851 93.2706 58.6397C93.0025 59.9943 93.1646 61.5112 94.022 62.6002C94.6467 63.3941 95.569 63.8928 96.2467 64.6395C96.6527 65.0936 96.9607 65.6269 97.1513 66.2058C97.3419 66.7847 97.4112 67.3968 97.3546 68.0038C98.1236 67.7087 98.1973 66.6699 98.215 65.8435C98.2478 64.3817 98.5001 62.9332 98.9634 61.5466C99.2323 60.632 99.689 59.7836 100.304 59.0558C100.615 58.6953 100.999 58.4052 101.43 58.2047C101.861 58.0042 102.33 57.898 102.806 57.8931C103.984 57.9344 105.042 58.7489 106.209 58.6515C107.093 58.5778 107.877 57.9728 108.767 57.8547C109.551 57.7804 110.335 58.0025 110.965 58.4774C111.588 58.9508 112.133 59.5183 112.582 60.1596C114.191 62.2815 115.497 64.7693 115.573 67.4313C115.906 67.6762 116.386 67.3575 116.551 66.9797C116.716 66.602 116.722 66.1593 116.932 65.7993C117.173 65.3832 117.636 65.1618 117.998 64.849C118.918 64.0551 119.147 62.7182 119.112 61.5053C119.077 60.2924 118.841 59.0617 119.071 57.8695C119.209 57.1376 119.522 56.4529 119.693 55.7299C119.863 55.0068 119.884 54.1953 119.48 53.5726C118.891 52.6577 117.651 52.4777 116.569 52.3921C115.34 52.2859 114.241 52.4216 113.458 51.3858C113.09 50.8452 112.676 50.3377 112.22 49.8689C112.064 49.7154 110.487 48.7415 110.487 48.6766Z" fill="#512E4E"/>
<path opacity="0.1" d="M78.4612 110.911L75.3821 105.209L74.4067 114.007C74.4067 114.007 74.9489 117.914 74.8399 118.513C74.7309 119.112 77.0616 124.483 77.0616 124.483C77.0616 124.483 84.761 138.218 87.905 138.926L98.5273 131.324L95.7104 127.741C95.7104 127.741 94.7351 127.361 94.4905 127.741C94.4905 127.741 89.2604 118.729 88.7182 118.076C88.176 117.424 88.2821 116.123 88.2821 116.123C88.2821 116.123 87.4689 115.255 87.74 114.44C88.011 113.626 86.1694 110.802 86.1694 110.802L87.849 109.229L78.4612 110.911Z" fill="black"/>
<path d="M75.5441 104.56L74.7308 105.209L73.7555 114.007C73.7555 114.007 74.2977 117.914 74.1886 118.513C74.0796 119.112 76.4133 124.483 76.4133 124.483C76.4133 124.483 84.1097 138.218 87.2537 138.926L97.8791 131.324L95.0592 127.741C95.0592 127.741 94.0839 127.361 93.8393 127.741C93.8393 127.741 88.6092 118.729 88.067 118.076C87.5248 117.424 87.6338 116.123 87.6338 116.123C87.6338 116.123 86.8206 115.255 87.0917 114.44C87.3628 113.626 85.5182 110.802 85.5182 110.802L87.1978 109.229L75.5441 104.56Z" fill="white"/>
<path opacity="0.1" d="M126.01 139.024C126.599 139.741 126.228 142.961 126.228 142.961L124.602 145.658C124.602 145.658 124.699 147.399 124.705 149.745L121.97 150.601C121.723 150.679 121.461 150.695 121.206 150.651C120.951 150.606 120.71 150.501 120.504 150.344C120.298 150.187 120.132 149.983 120.021 149.749C119.909 149.515 119.855 149.258 119.863 148.999L120.335 133.768L126.714 136.211C126.172 136.589 126.767 137.516 126.767 137.516C126.767 137.516 125.415 138.307 126.01 139.024Z" fill="black"/>
<path d="M126.337 138.696C126.926 139.413 126.555 142.636 126.555 142.636L124.929 145.333C124.929 145.333 125.026 147.072 125.035 149.421L122.25 150.291C122.008 150.367 121.752 150.383 121.502 150.339C121.252 150.295 121.017 150.192 120.815 150.038C120.613 149.885 120.451 149.685 120.342 149.456C120.233 149.227 120.18 148.975 120.187 148.721L120.662 133.443L127.044 135.887C126.499 136.264 127.094 137.188 127.094 137.188C127.094 137.188 125.748 137.982 126.337 138.696Z" fill="white"/>
<path d="M128.45 131.436C128.45 131.436 128.017 134.207 126.932 134.37C125.848 134.532 125.362 138.853 124.28 138.699C123.199 138.546 123.915 134.683 123.953 133.933C123.992 133.183 122.775 130.079 123.685 129.373C124.596 128.668 127.477 129.373 127.477 129.373L128.45 131.436Z" fill="#CF6F80"/>
<path opacity="0.1" d="M130.757 110.096L132.802 105.965C132.802 105.965 133.615 109.114 133.615 110.796C133.615 112.478 134.752 112.643 134.752 112.643C134.752 112.643 135.999 114.119 135.342 115.193C134.685 116.267 134.419 118.941 134.419 118.941C134.419 118.941 134.635 124.044 133.659 124.749C132.684 125.454 132.481 127.139 132.481 127.139C132.481 127.139 130.689 130.341 130.745 131.103C130.801 131.864 128.252 137.02 128.252 137.02C128.252 137.02 129.499 130.613 122.235 127.845C122.235 127.845 122.179 125.67 122.722 125.074C123.264 124.477 124.109 124.206 123.579 121.193C123.049 118.18 123.426 114.579 123.426 113.856C123.426 113.133 125.052 108.624 125.052 108.624L130.757 110.096Z" fill="black"/>
<path d="M131.641 105.375L133.426 105.965C133.426 105.965 134.243 109.114 134.243 110.796C134.243 112.478 135.38 112.643 135.38 112.643C135.38 112.643 136.626 114.119 135.969 115.193C135.312 116.267 135.05 118.941 135.05 118.941C135.05 118.941 135.265 124.044 134.29 124.749C133.315 125.454 133.096 127.139 133.096 127.139C133.096 127.139 131.308 130.341 131.364 131.103C131.42 131.864 128.868 137.02 128.868 137.02C128.868 137.02 130.118 130.613 122.851 127.845C122.851 127.845 122.798 125.67 123.34 125.074C123.883 124.477 124.728 124.206 124.198 121.193C123.667 118.18 124.045 114.579 124.045 113.856C124.045 113.133 125.671 108.624 125.671 108.624L131.641 105.375Z" fill="white"/>
<path opacity="0.1" d="M92.201 212.464C92.201 212.464 95.0474 210.672 96.9156 211.974C98.7837 213.275 92.201 212.464 92.201 212.464Z" fill="black"/>
<path opacity="0.1" d="M114.318 206.924C114.318 206.924 116.837 206.6 118.953 208.881C121.069 211.162 114.318 206.924 114.318 206.924Z" fill="black"/>
<g opacity="0.1">
<path opacity="0.1" d="M118.004 64.2027C117.642 64.5156 117.176 64.7399 116.934 65.156C116.728 65.5131 116.722 65.9528 116.557 66.3365C116.392 66.7201 115.912 67.0329 115.579 66.7909C115.502 64.1349 114.194 61.6411 112.588 59.5163C112.139 58.875 111.594 58.3075 110.971 57.8341C110.34 57.3592 109.555 57.1372 108.77 57.2114C107.886 57.3324 107.108 57.9345 106.215 58.0082C105.036 58.1086 103.978 57.2911 102.809 57.2498C102.333 57.2545 101.864 57.361 101.433 57.562C101.002 57.7631 100.619 58.0541 100.31 58.4155C99.6948 59.1421 99.2382 59.9895 98.9693 60.9033C98.5062 62.29 98.2539 63.7385 98.2208 65.2002C98.2032 66.0236 98.1265 67.0506 97.3663 67.3576C97.384 67.5756 97.384 67.7947 97.3663 68.0127C98.1324 67.7176 98.2091 66.6788 98.2267 65.8525C98.2596 64.3907 98.5119 62.9421 98.9752 61.5555C99.2441 60.6409 99.7007 59.7925 100.316 59.0648C100.626 58.7043 101.009 58.4142 101.44 58.2137C101.871 58.0132 102.339 57.9069 102.815 57.902C103.993 57.9433 105.054 58.7578 106.221 58.6604C107.105 58.5867 107.889 57.9817 108.775 57.8636C109.561 57.7894 110.346 58.0114 110.977 58.4863C111.599 58.9598 112.145 59.5272 112.594 60.1685C114.2 62.2904 115.508 64.7782 115.585 67.4402C115.918 67.6851 116.398 67.3664 116.563 66.9887C116.728 66.6109 116.734 66.1682 116.94 65.8082C117.182 65.3921 117.648 65.1707 118.01 64.8579C118.929 64.064 119.159 62.7272 119.124 61.5142C119.124 61.4759 119.124 61.4375 119.124 61.4021C119.068 62.4527 118.788 63.524 118.004 64.2027Z" fill="black"/>
<path opacity="0.1" d="M96.2526 63.9932C95.5749 63.2466 94.6497 62.7478 94.028 61.9569C93.5044 61.2568 93.2054 60.4139 93.1705 59.5399C93.0778 60.6321 93.3823 61.7211 94.028 62.6062C94.6497 63.4 95.5749 63.8988 96.2526 64.6454C96.9033 65.3758 97.294 66.3015 97.3635 67.2779C97.4086 66.6837 97.3334 66.0865 97.1426 65.5221C96.9517 64.9577 96.649 64.4377 96.2526 63.9932Z" fill="black"/>
<path opacity="0.1" d="M119.698 55.0836C119.525 55.8066 119.215 56.4943 119.074 57.2232C118.99 57.7103 118.959 58.2051 118.982 58.6988C118.992 58.4175 119.023 58.1374 119.074 57.8607C119.215 57.1288 119.525 56.4441 119.698 55.7211C119.8 55.3223 119.833 54.9091 119.796 54.4993C119.777 54.6961 119.745 54.8914 119.698 55.0836Z" fill="black"/>
</g>
<path opacity="0.1" d="M39.1098 224.463C54.9666 224.463 67.8211 222.395 67.8211 219.845C67.8211 217.294 54.9666 215.226 39.1098 215.226C23.2529 215.226 10.3984 217.294 10.3984 219.845C10.3984 222.395 23.2529 224.463 39.1098 224.463Z" fill="#E00000"/>
<path d="M40.035 131.368H38.1875V173.03H40.035V131.368Z" fill="#535461"/>
<path d="M51.6445 172.903L51.5296 174.78L51.3646 177.436L51.2968 178.54L51.1348 181.196L51.064 182.3L50.899 184.956L49.0368 215.078C48.9559 216.374 48.3849 217.591 47.4401 218.48C46.4952 219.369 45.2476 219.865 43.951 219.865H34.2686C32.9724 219.865 31.7251 219.369 30.7807 218.48C29.8364 217.591 29.266 216.374 29.1858 215.078L27.3324 184.935L27.1674 182.279L27.0996 181.175L26.9346 178.519L26.8668 177.415L26.7018 174.759L26.584 172.882C26.5635 172.521 26.6169 172.16 26.741 171.82C26.8651 171.48 27.0572 171.169 27.3055 170.906C27.5538 170.644 27.8531 170.434 28.1851 170.292C28.517 170.149 28.8746 170.075 29.2359 170.076H49.0398C49.3997 170.079 49.7551 170.156 50.0842 170.302C50.4132 170.448 50.7089 170.66 50.953 170.925C51.1971 171.19 51.3844 171.502 51.5033 171.842C51.6222 172.183 51.6703 172.544 51.6445 172.903Z" fill="#3F3D56"/>
<path d="M51.5296 174.78L51.3646 177.427H26.8551L26.6901 174.78H51.5296Z" fill="#9D9CB5"/>
<path d="M51.2969 178.531L51.1348 181.181H27.0879L26.9229 178.531H51.2969Z" fill="#9D9CB5"/>
<path d="M51.064 182.288L50.9019 184.935H27.3205L27.1555 182.288H51.064Z" fill="#9D9CB5"/>
<path d="M23.8701 146.983C34.6281 154.78 39.1186 166.974 39.1186 166.974C39.1186 166.974 26.1537 166.529 15.3929 158.732C4.632 150.935 0.150269 138.743 0.150269 138.743C0.150269 138.743 13.1093 139.186 23.8701 146.983Z" fill="#E00000"/>
<path d="M0.141479 138.743C0.141479 138.743 13.6014 146.225 17.9181 152.419C22.2348 158.614 39.1187 166.974 39.1187 166.974" stroke="#535461" stroke-width="2" stroke-miterlimit="10"/>
<path d="M30.8152 131.277C36.67 135.518 39.1186 142.155 39.1186 142.155C39.1186 142.155 32.0616 141.913 26.2038 137.672C20.346 133.431 17.9033 126.791 17.9033 126.791C17.9033 126.791 24.9574 127.033 30.8152 131.277Z" fill="#E00000"/>
<path d="M17.9033 126.791C17.9033 126.791 25.2285 130.864 27.5769 134.234C29.9253 137.604 39.1186 142.155 39.1186 142.155" stroke="#535461" stroke-width="2" stroke-miterlimit="10"/>
<path d="M47.6194 141.819C40.8924 149.223 39.4692 158.9 39.4692 158.9C39.4692 158.9 48.9542 156.569 55.6754 149.161C62.3965 141.754 63.8256 132.08 63.8256 132.08C63.8256 132.08 54.3465 134.414 47.6194 141.819Z" fill="#E00000"/>
<path d="M63.8315 132.083C63.8315 132.083 55.0684 139.673 52.8408 144.903C50.6132 150.132 39.4692 158.9 39.4692 158.9" stroke="#535461" stroke-width="2" stroke-miterlimit="10"/>
<path d="M294.56 139.213C294.56 139.213 289.695 114.972 291.557 111.956C291.557 111.956 291.625 109.152 291.513 105.578C291.513 105.442 291.513 105.307 291.513 105.168C291.84 105.387 292.182 105.584 292.535 105.758C294.251 106.641 296.221 106.896 298.104 106.478L296.631 104.835C296.277 104.442 295.909 104.017 295.832 103.498C295.756 102.978 295.968 102.515 296.151 102.052C297.55 98.5102 297.624 94.0569 294.928 91.3536C292.65 89.0812 292.096 86.1477 289.624 84.073C287.818 82.5532 286.825 80.3251 285.888 78.1707C285.095 76.3498 284.297 74.5142 283.843 72.5841C283.489 71.0761 283.348 69.5149 282.862 68.0423C282.375 66.5696 281.465 65.1383 280.042 64.4802C279.535 64.2471 278.972 64.1143 278.51 63.8044C277.903 63.3942 277.537 62.7272 277.098 62.1429C274.868 59.1917 267.398 60.93 263.862 62.1281C262.901 62.4299 262.011 62.9238 261.246 63.5801L261.278 63.527C261.305 63.4827 261.337 63.4385 261.366 63.3942C260.979 63.7076 260.645 64.0813 260.376 64.5009C259.861 65.3184 259.646 66.2716 259.215 67.1569C258.697 68.2046 255.812 71.1292 257.053 72.3067C257.14 72.3858 257.239 72.4497 257.347 72.4956C257.813 72.6897 258.326 72.7411 258.821 72.6432L258.768 72.7701C258.344 73.809 258.127 74.9207 258.128 76.0429C258.128 80.8917 262.121 84.8226 267.05 84.8226C267.977 84.8235 268.898 84.6812 269.782 84.4006C269.802 84.5128 269.82 84.6249 269.841 84.7371C269.841 84.7813 269.856 84.8256 269.861 84.8699L269.705 85.0883C269.697 85.0748 269.689 85.062 269.679 85.0499L265.053 91.5248C264.345 92.0235 260.273 94.9747 260.043 97.1881C259.802 99.611 259.56 102.447 259.56 102.447L259.528 103.055C259.326 103.224 259.089 103.347 258.835 103.416C258.58 103.485 258.314 103.498 258.055 103.453C256.611 103.217 256.611 108.765 256.611 108.765C256.611 108.765 255.65 109.651 254.99 108.884C254.33 108.116 252.586 110.716 252.586 110.716L241.654 111.188L241.403 111.203L240.814 109.376C240.751 109.184 240.614 109.024 240.434 108.932C240.253 108.839 240.044 108.822 239.851 108.884C239.805 108.899 239.761 108.917 239.718 108.94L239.677 108.963L239.6 109.016L239.562 109.052C239.541 109.071 239.521 109.092 239.503 109.114L239.468 109.155L239.45 109.173C239.382 109.267 239.337 109.376 239.318 109.491C239.3 109.605 239.309 109.723 239.344 109.834L239.851 111.401C237.741 111.826 235.584 113.024 237.343 116.323L228.427 114.674L231.311 117.1L246.203 120.178C246.006 120.532 246.136 121.045 246.751 121.768C249.403 124.888 254.236 125.735 256.18 125.953C256.694 127.104 257.336 128.193 258.093 129.199L257.925 132.307C257.925 132.307 253.001 155.993 252.099 157.194C252.555 156.678 252.971 156.128 253.346 155.55C251.917 160.417 249.919 167.078 249.395 168.075C248.552 169.669 247.771 176.117 248.732 176.53C249.026 176.657 249.869 176.595 251.071 176.504V177.038L251.018 197.28C251.018 197.28 251.26 209.696 250.597 210.879C249.934 212.062 249.757 214.544 249.757 214.544C249.757 214.544 247.105 219.44 245.004 221.409C244.99 221.424 244.974 221.438 244.957 221.45L244.892 220.99C244.892 220.99 242.367 224.183 236.78 224.003C236.78 224.003 233.418 226.193 238.404 226.311C243.389 226.429 249.757 226.134 249.757 226.134C249.757 226.134 254.203 219.346 257.928 220.231V225.375H259.068V220.149C259.597 219.8 260.05 219.347 260.399 218.818C260.748 218.289 260.986 217.695 261.098 217.071C261.196 216.427 261.124 215.77 260.891 215.163C260.657 214.556 260.27 214.02 259.766 213.609C259.54 213.404 259.359 213.155 259.234 212.876C259.108 212.598 259.042 212.297 259.039 211.992L258.997 212.027C258.997 211.924 258.971 211.817 258.959 211.708C258.632 209.052 258.222 203.572 259.669 199.517C261.652 193.957 262.253 186.213 260.81 181.603C260.344 180.13 259.961 178.631 259.663 177.115C259.628 176.923 259.596 176.74 259.566 176.569C260.553 176.702 261.53 176.9 262.492 177.159C265.836 178.083 273.153 178.254 279.399 178.204C279.414 178.375 279.432 178.555 279.452 178.735C279.564 179.986 279.797 181.224 280.148 182.43C280.932 184.791 281.291 195.199 281.291 195.199C281.291 195.199 282.302 203.758 281.751 207.24C281.456 209.176 281.161 211.121 280.994 213.075V213.113C280.994 213.113 279.338 217.835 278.127 220.399C278.097 220.464 278.065 220.529 278.035 220.591C277.712 220.621 277.394 220.691 277.089 220.801C277.089 220.801 275.466 224.047 273.848 224.584C272.23 225.121 272.767 226.889 276.429 226.24C280.092 225.591 285.623 225.059 285.623 225.059L285.861 221.748L286.987 220.337L286.692 223.64L287.891 223.404L287.732 219.387L289.574 217.079C289.574 217.079 291.799 215.096 288.493 211.195V211.28C288.457 211.224 288.425 211.165 288.386 211.109V211.091C287.838 210.242 287.402 208.657 288.201 205.844C289.645 200.762 290.484 196.15 290.484 196.15C290.484 196.15 293.708 183.793 289.833 177.947H290.004C289.607 177.124 289.326 176.25 289.17 175.35C289.151 175.244 289.133 175.134 289.117 175.022C291.984 174.857 294.798 174.338 297.094 173.216C297.085 173.204 295.703 143.881 294.56 139.213ZM258.161 118.761V118.82L257.571 118.85L258.161 118.761ZM256.139 119.041C256.042 119.063 255.952 119.106 255.874 119.168C255.621 119.527 255.462 119.945 255.411 120.381L254.492 120.175C254.492 120.175 253.847 120.036 252.919 119.88L252.48 119.437C253.688 119.337 254.943 119.189 256.139 119.041Z" fill="url(#paint1_linear)"/>
<path d="M286.557 219.428L286.206 223.61L287.382 223.374L287.205 218.838L286.557 219.428Z" fill="#1D2366"/>
<path d="M259.734 199.573C258.317 203.616 258.717 209.073 259.036 211.723C259.154 212.703 259.263 213.299 259.263 213.299C259.263 213.299 257.144 218.133 256.967 218.316C256.79 218.499 250.732 222.203 250.732 222.203L246.498 224.679C246.498 224.679 242.202 222.793 244.262 222.144C244.682 221.974 245.061 221.716 245.372 221.385C247.435 219.423 250.025 214.544 250.025 214.544C250.025 214.544 250.202 212.068 250.85 210.891C251.498 209.713 251.263 197.339 251.263 197.339L251.313 177.168V174.538L259.372 174.597C259.422 175.49 259.539 176.378 259.719 177.253C260.009 178.765 260.383 180.258 260.842 181.727C262.262 186.328 261.673 194.034 259.734 199.573Z" fill="#FFB0B1"/>
<path opacity="0.1" d="M259.263 213.299C259.263 213.299 257.144 218.133 256.967 218.316C256.79 218.499 250.732 222.203 250.732 222.203L246.498 224.679C246.498 224.679 242.202 222.793 244.262 222.144C244.682 221.974 245.061 221.716 245.372 221.385L245.555 222.675L246.967 222.616L259.048 211.729C259.154 212.703 259.263 213.299 259.263 213.299Z" fill="black"/>
<path d="M259.115 212.003L246.966 222.964L245.555 223.023L245.26 220.957C245.26 220.957 242.791 224.139 237.305 223.961C237.305 223.961 234.01 226.142 238.893 226.26C243.775 226.379 250.01 226.083 250.01 226.083C250.01 226.083 254.365 219.296 258.01 220.181V225.307H259.13V220.134C259.65 219.783 260.095 219.33 260.436 218.802C260.777 218.275 261.009 217.684 261.116 217.065C261.213 216.427 261.144 215.774 260.917 215.171C260.689 214.567 260.31 214.032 259.816 213.618C259.596 213.411 259.42 213.161 259.299 212.883C259.179 212.605 259.116 212.306 259.115 212.003Z" fill="#1D2366"/>
<path d="M287.676 205.877C286.892 208.68 287.32 210.259 287.856 211.106V211.124C288.544 212.17 289.022 213.339 289.264 214.568L289.312 214.833L283.784 222.905L280.784 224.085C280.784 224.085 275.961 222.436 276.842 221.963C277.063 221.848 277.407 221.235 277.802 220.388C278.981 217.835 280.607 213.125 280.607 213.125V213.086C280.778 211.142 281.049 209.203 281.35 207.273C281.889 203.799 280.899 195.273 280.899 195.273C280.899 195.273 280.546 184.906 279.779 182.548C279.434 181.349 279.204 180.119 279.093 178.876C278.934 177.401 278.898 176.185 278.898 176.185C278.898 176.185 282.075 171.758 287.897 176.539C288.363 176.92 288.773 177.365 289.114 177.861C293.136 183.592 289.898 196.217 289.898 196.217C289.898 196.217 289.088 200.809 287.676 205.877Z" fill="#FFB0B1"/>
<path opacity="0.1" d="M289.32 214.834L283.793 222.905L280.793 224.085C280.793 224.085 275.97 222.436 276.851 221.964C277.072 221.849 277.416 221.235 277.811 220.388C279.853 220.37 280.911 222.318 280.911 222.318L283.498 221.905C283.498 221.905 286.91 215.188 287.676 214.778C288.442 214.367 287.794 211.711 287.794 211.711V211.035C287.815 211.059 287.832 211.086 287.856 211.109V211.127C288.544 212.173 289.022 213.342 289.264 214.571L289.32 214.834Z" fill="black"/>
<path d="M281.088 222.492C281.088 222.492 279.615 219.783 276.792 220.783C276.792 220.783 275.204 224.029 273.615 224.555C272.027 225.08 272.558 226.851 276.146 226.204C279.735 225.558 285.145 225.024 285.145 225.024L285.381 221.722L289.029 217.068C289.029 217.068 291.203 215.093 287.968 211.207V211.882C287.968 211.882 288.616 214.538 287.85 214.949C287.084 215.359 283.684 222.079 283.684 222.079L281.088 222.492Z" fill="#1D2366"/>
<path opacity="0.1" d="M259.38 174.591C259.431 175.484 259.547 176.372 259.728 177.247C256.41 176.76 253.331 177.002 251.313 177.162V174.532L259.38 174.591Z" fill="black"/>
<path opacity="0.1" d="M289.441 178.596C289.441 178.596 284.727 178.826 279.105 178.873C278.946 177.398 278.91 176.182 278.91 176.182C278.91 176.182 282.087 171.755 287.909 176.536C288.375 176.917 288.784 177.363 289.126 177.858C289.217 178.11 289.323 178.356 289.441 178.596Z" fill="black"/>
<path d="M289.441 178.065C289.441 178.065 268.792 179.065 262.498 177.297C256.204 175.53 249.966 177.061 249.026 176.651C248.086 176.241 248.849 169.816 249.674 168.226C250.499 166.635 255.025 150.548 255.025 150.548L259.38 127.806L263.968 126.54L264.292 126.449L272.286 124.241L278.144 122.621C278.144 122.621 289.792 168.167 288.793 171.525C288.43 172.811 288.372 174.164 288.622 175.477C288.775 176.373 289.05 177.244 289.441 178.065Z" fill="#1D2366"/>
<path d="M244.2 112.254C244.2 112.254 240.075 116.68 243.198 119.148C246.321 121.615 248.375 119.384 248.375 119.384L244.2 112.254Z" fill="#C7DAF5"/>
<path opacity="0.1" d="M244.2 112.254C244.2 112.254 240.075 116.68 243.198 119.148C246.321 121.615 248.375 119.384 248.375 119.384L244.2 112.254Z" fill="black"/>
<path d="M277.528 83.1492C277.528 83.1492 277.045 83.6096 276.317 84.2884C275.28 85.2593 273.745 86.6788 272.384 87.8682C270.498 89.512 268.942 90.719 269.499 89.689C270.056 88.6591 269.95 86.8648 269.673 85.1855C269.652 85.0734 269.634 84.9613 269.614 84.8521C269.385 83.6188 269.08 82.4007 268.703 81.2044C268.703 81.2044 271.75 77.2617 273.436 75.7064C274.063 75.1162 274.502 74.8742 274.529 75.2844C274.558 75.8363 274.971 77.0551 275.483 78.3477C275.498 78.389 275.513 78.4274 275.531 78.4687C275.872 79.354 276.258 80.263 276.597 81.048C277.116 82.2521 277.528 83.1492 277.528 83.1492Z" fill="#FFB0B1"/>
<path opacity="0.1" d="M275.531 78.4686C275.244 80.011 274.55 81.4481 273.519 82.6297C272.489 83.8112 271.16 84.6939 269.673 85.1855C269.439 83.8383 269.115 82.5083 268.703 81.2044C268.703 81.2044 274.44 73.7822 274.529 75.2843C274.549 75.8539 274.997 77.117 275.531 78.4686Z" fill="black"/>
<path opacity="0.1" d="M269.101 87.1688L269.844 86.1211C269.844 86.1211 270.336 89.1254 272.145 87.8003C273.954 86.4752 274.043 97.7723 274.043 97.7723L272.101 126.85L258.069 126.009L258.467 111.959L260.055 104.876L263.983 94.5791L266.32 91.1764L269.101 87.1688Z" fill="black"/>
<path d="M274.043 97.9524L272.275 124.244L272.089 127.03L264.266 126.561L263.971 126.543L258.078 126.189L258.476 112.136L260.064 105.053L263.992 94.7562L266.329 91.3535L269.11 87.3311L269.853 86.2864C269.853 86.2864 270.345 89.2907 272.154 87.9656L272.192 87.939C273.96 86.8176 274.043 97.9524 274.043 97.9524Z" fill="#1D2366"/>
<path d="M260.261 102.592C260.261 102.592 259.557 104.067 258.143 103.828C256.728 103.589 256.731 109.14 256.731 109.14C256.731 109.14 255.791 110.026 255.143 109.258C254.495 108.491 252.786 111.085 252.786 111.085L242.078 111.557C242.078 111.557 246.843 113.738 245.909 120.337C245.909 120.337 262.085 119.334 262.616 117.802C263.146 116.27 260.261 102.592 260.261 102.592Z" fill="white"/>
<path opacity="0.03" d="M260.261 102.592C260.261 102.592 259.557 104.067 258.143 103.828C256.728 103.589 256.731 109.14 256.731 109.14C256.731 109.14 255.791 110.026 255.143 109.258C254.495 108.491 252.786 111.085 252.786 111.085L242.078 111.557C242.078 111.557 246.843 113.738 245.909 120.337C245.909 120.337 262.085 119.334 262.616 117.802C263.146 116.27 260.261 102.592 260.261 102.592Z" fill="black"/>
<path d="M229.143 115.025L231.966 117.439L255.202 122.329L252.321 119.384L229.143 115.025Z" fill="white"/>
<path d="M269.145 88.0985C268.759 88.6887 267.654 91.7107 266.732 94.349C265.963 96.5477 265.321 98.4807 265.321 98.4807C265.321 98.4807 263.821 108.261 263.055 110.029C262.289 111.796 262.704 118.69 262.704 118.69L259.849 135.716C259.849 135.716 258.555 144.495 256.558 149.74C254.586 154.901 252.391 157.321 252.323 157.398C253.207 156.2 258.025 132.608 258.025 132.608L259.616 102.854C259.616 102.854 259.849 100.027 260.085 97.6101C260.32 95.1931 265.094 91.8937 265.094 91.8937L269.696 85.3391C270.159 85.9589 269.85 87.039 269.145 88.0985Z" fill="white"/>
<path d="M257.144 126.337C257.144 126.337 250.367 126.042 247.084 122.093C243.802 118.144 254.672 120.517 254.672 120.517L257.498 121.166L257.144 126.337Z" fill="#FFB0B1"/>
<path opacity="0.1" d="M288.793 171.528C288.43 172.814 288.372 174.167 288.622 175.48C281.229 176.005 273.321 174.004 273.321 174.004C271.847 175.362 267.967 177.362 267.967 177.362L265.851 151.097C264.499 147.556 263.968 129.002 263.968 129.002C263.968 129.002 264.089 128.031 264.263 126.576C264.263 126.54 264.263 126.502 264.278 126.467C264.805 122.403 265.851 114.774 266.364 113.744C267.071 112.327 264.189 108.559 264.189 108.559L265.5 97.3591L265.66 96.0075C268.423 94.7709 270.542 90.8223 270.542 90.8223L272.169 87.9685C273.936 86.8323 274.028 97.967 274.028 97.967L272.26 124.259L278.118 122.639C278.118 122.639 289.792 168.169 288.793 171.528Z" fill="black"/>
<path d="M296.38 173.343C288.322 177.351 273.674 173.638 273.674 173.638C272.201 174.996 268.32 176.997 268.32 176.997L266.202 150.731C264.852 147.19 264.322 128.636 264.322 128.636C264.322 128.636 266.025 114.792 266.732 113.378C266.938 112.965 266.838 112.351 266.594 111.69C265.391 108.544 264.949 105.157 265.303 101.807L265.869 96.9932L266.025 95.6445C268.792 94.405 270.91 90.4564 270.91 90.4564L272.384 87.8712L275.094 83.108L276.379 80.8533L276.597 81.051L278.262 82.562C278.262 82.562 278.969 83.1522 280.03 84.0376C282.337 85.9854 286.324 89.4146 288.381 91.5129C290.19 93.3603 290.761 100.546 290.926 105.956C291.035 109.518 290.971 112.31 290.971 112.31C289.147 115.317 293.917 139.461 293.917 139.461C295.028 144.126 296.38 173.343 296.38 173.343Z" fill="white"/>
<path opacity="0.03" d="M280.911 90.3973C280.911 90.3973 275.38 100.942 276.023 104.95C276.665 108.957 278.492 113.493 277.611 114.553C277.308 114.954 276.917 115.28 276.467 115.505C276.018 115.729 275.523 115.847 275.021 115.848C274.137 115.907 271.779 117.557 271.779 117.734C271.779 117.911 269.602 117.911 267.654 118.737C265.707 119.564 262.831 120.033 262.831 120.033C262.831 120.033 257.232 119.856 256.711 120.387C256.189 120.918 255.653 124.097 256.77 126.632C257.886 129.167 259.127 131.059 260.064 131.404C261.001 131.749 266.947 129.754 271.771 129.282C276.594 128.81 281.83 124.982 281.83 124.982C281.83 124.982 287.597 122.916 288.607 119.443C289.618 115.969 287.373 96.8781 287.373 96.8781C287.373 96.8781 285.676 87.9803 280.911 90.3973Z" fill="black"/>
<path opacity="0.03" d="M280.204 89.512C280.204 89.512 274.673 100.059 275.321 104.064C275.97 108.069 277.791 112.608 276.907 113.67C276.605 114.072 276.214 114.398 275.765 114.623C275.316 114.848 274.821 114.965 274.319 114.966C273.436 115.025 271.078 116.675 271.078 116.852C271.078 117.029 268.901 117.029 266.953 117.852C265.005 118.675 262.13 119.148 262.13 119.148C262.13 119.148 256.531 118.971 256.012 119.502C255.494 120.033 254.952 123.214 256.071 125.746C257.191 128.279 258.429 130.173 259.366 130.519C260.303 130.864 266.249 128.869 271.072 128.4C275.896 127.93 281.132 124.097 281.132 124.097C281.132 124.097 286.895 122.031 287.894 118.56C288.893 115.09 286.66 95.9928 286.66 95.9928C286.66 95.9928 284.968 87.0979 280.204 89.512Z" fill="black"/>
<path d="M280.737 89.8661C280.737 89.8661 275.206 100.414 275.855 104.418C276.503 108.423 278.324 112.962 277.443 114.021C277.141 114.424 276.75 114.751 276.301 114.977C275.851 115.202 275.356 115.32 274.853 115.32C273.969 115.379 271.612 117.029 271.612 117.203C271.612 117.377 269.437 117.38 267.486 118.206C265.536 119.033 262.663 119.502 262.663 119.502C262.663 119.502 257.064 119.325 256.543 119.856C256.021 120.387 255.485 123.569 256.602 126.101C257.719 128.633 258.959 130.527 259.896 130.873C260.833 131.218 266.779 129.223 271.603 128.751C276.426 128.279 281.662 124.451 281.662 124.451C281.662 124.451 287.429 122.385 288.439 118.912C289.45 115.438 287.22 96.3469 287.22 96.3469C287.22 96.3469 285.499 87.4639 280.737 89.8661Z" fill="white"/>
<path opacity="0.1" d="M280.616 118.156C280.616 118.156 276.196 117.271 277.735 118.746C279.273 120.222 279.264 121.515 281.147 121.456C283.03 121.396 280.616 118.156 280.616 118.156Z" fill="black"/>
<path opacity="0.1" d="M288.086 149.905C288.086 149.905 286.088 151.259 289.91 154.382C293.732 157.504 288.086 149.905 288.086 149.905Z" fill="black"/>
<path opacity="0.1" d="M284.273 161.04C284.273 161.217 283.566 167.532 286.212 169.111C288.858 170.69 284.273 161.04 284.273 161.04Z" fill="black"/>
<path d="M242.261 111.542C240.128 111.616 235.519 112.268 237.909 116.734C240.022 120.685 243.572 118.044 245.57 116.04C245.083 114.172 243.898 112.562 242.261 111.542Z" fill="#FFB0B1"/>
<path d="M245.596 116.004L245.685 115.913L245.596 116.004Z" fill="#FFB0B1"/>
<path opacity="0.1" d="M280.03 84.2176C277.767 85.7669 275.869 87.0743 275.498 87.3458C274.485 88.0984 272.552 92.5163 271.305 94.771C270.312 96.5859 267.086 97.0522 265.869 97.1673L266.025 95.8186C268.792 94.5791 270.91 90.6305 270.91 90.6305L276.379 81.0273L278.262 82.742C278.262 82.742 278.969 83.3322 280.03 84.2176Z" fill="black"/>
<path d="M280.03 84.0406C277.767 85.5899 275.869 86.8973 275.498 87.1718C274.485 87.9214 272.552 92.3393 271.305 94.5939C270.312 96.4089 267.086 96.8752 265.869 96.9903L266.025 95.6416C268.792 94.4021 270.91 90.4535 270.91 90.4535L276.379 80.8503L278.262 82.5591C278.262 82.5591 278.969 83.1434 280.03 84.0406Z" fill="#DCE7FF"/>
<path d="M275.675 76.521C275.676 78.2925 275.14 80.0226 274.137 81.4819C272.952 83.2072 271.19 84.4502 269.168 84.9851C267.147 85.5201 265.002 85.3117 263.121 84.3977C261.24 83.4837 259.748 81.9247 258.917 80.0035C258.085 78.0823 257.969 75.9263 258.589 73.9266C259.209 71.927 260.524 70.2161 262.296 69.1046C264.068 67.993 266.179 67.5543 268.245 67.8682C270.312 68.182 272.199 69.2276 273.562 70.8152C274.925 72.4027 275.675 74.4271 275.675 76.521Z" fill="#FFB0B1"/>
<path opacity="0.1" d="M290.926 105.959C289.73 105.222 288.755 104.173 288.106 102.925C287.614 101.951 287.287 100.827 286.448 100.136C285.69 99.5164 284.68 99.3659 283.737 99.0885C280.637 98.1707 278.038 95.3375 277.941 92.1031C277.894 90.5802 278.368 89.0604 278.153 87.5523C278.031 86.6988 277.692 85.891 277.169 85.2062C276.909 84.8786 276.624 84.5717 276.317 84.2883C275.905 83.8988 275.472 83.521 275.094 83.1079C274.857 82.8521 274.649 82.5699 274.476 82.2668C274.335 82.0188 274.222 81.7566 274.137 81.4847C273.547 79.6786 274.084 77.5361 273.435 75.7093L273.4 75.609C273.156 74.9597 272.658 74.3104 271.965 74.2603C271.273 74.2101 270.68 74.7856 270.02 75.0423C268.638 75.5794 267.148 74.6646 265.995 73.732C264.843 72.7994 263.544 71.7341 262.079 71.9406C261.11 72.0794 260.344 72.7404 259.451 73.0827C259.25 73.1609 259.041 73.2212 258.829 73.2628C259.585 71.3755 260.973 69.8107 262.755 68.8372C264.538 67.8637 266.603 67.5423 268.596 67.9282C270.59 68.3141 272.386 69.3831 273.678 70.9517C274.97 72.5203 275.676 74.4905 275.675 76.5238C275.676 77.1378 275.612 77.7502 275.483 78.3506C275.498 78.3919 275.513 78.4303 275.531 78.4716C275.872 79.3569 276.258 80.2659 276.597 81.0509L278.262 82.5619C278.262 82.5619 278.969 83.1522 280.03 84.0375C282.337 85.9853 286.324 89.4145 288.38 91.5128C290.19 93.3662 290.755 100.549 290.926 105.959Z" fill="black"/>
<path d="M259.348 67.691C259.769 66.8322 259.979 65.8702 260.482 65.0556C261.222 63.8752 262.513 63.1197 263.839 62.6622C267.301 61.467 274.617 59.7317 276.804 62.6622C277.234 63.2525 277.59 63.9076 278.185 64.3149C278.639 64.6248 279.187 64.7576 279.685 64.9907C281.079 65.6459 281.969 67.0742 282.443 68.5321C282.918 69.99 283.059 71.5541 283.407 73.0563C283.852 74.9834 284.633 76.8102 285.41 78.6251C286.327 80.7677 287.299 82.9899 289.067 84.5039C291.48 86.5697 292.014 89.4943 294.253 91.7608C296.905 94.4523 296.82 98.8938 295.452 102.42C295.273 102.884 295.069 103.368 295.14 103.861C295.211 104.353 295.576 104.802 295.921 105.195L297.371 106.832C293.941 107.662 290.06 105.867 288.463 102.718C287.971 101.745 287.644 100.623 286.801 99.9296C286.047 99.3099 285.033 99.1623 284.093 98.8849C280.994 97.9642 278.395 95.1281 278.297 91.8936C278.25 90.3737 278.725 88.8539 278.51 87.3488C278.39 86.4896 278.05 85.6761 277.523 84.9879C276.712 83.9284 275.489 83.2171 274.829 82.0367C273.713 80.0623 274.561 77.4978 273.757 75.3788C273.509 74.7296 273.014 74.0803 272.322 74.0302C271.629 73.98 271.037 74.5555 270.374 74.8122C268.995 75.3493 267.504 74.4374 266.352 73.5019C265.2 72.5664 263.901 71.504 262.433 71.7135C261.464 71.8492 260.701 72.5103 259.808 72.8556C259.148 73.1094 257.81 73.3366 257.232 72.7789C256.013 71.6545 258.838 68.7417 259.348 67.691Z" fill="#591D4B"/>
<path opacity="0.1" d="M289.282 101.745C288.787 100.771 288.463 99.6493 287.62 98.9587C286.866 98.3389 285.852 98.1884 284.909 97.911C281.813 96.9932 279.214 94.1571 279.114 90.9226C279.066 89.4028 279.541 87.88 279.329 86.3749C279.205 85.5212 278.865 84.7134 278.342 84.0287C277.528 82.9692 276.305 82.258 275.648 81.0775C274.532 79.1061 275.38 76.5416 274.573 74.4197C274.328 73.7734 273.83 73.1241 273.141 73.071C272.451 73.0179 271.853 73.5993 271.193 73.856C269.814 74.3931 268.32 73.4783 267.171 72.5457C266.022 71.6131 264.717 70.5477 263.252 70.7543C262.283 70.893 261.517 71.5541 260.627 71.8964C259.967 72.1502 258.626 72.3804 258.049 71.8226C256.835 70.6422 259.66 67.7353 260.167 66.6906C260.588 65.8288 260.798 64.8697 261.304 64.0552C261.331 64.0109 261.36 63.9666 261.39 63.9224C261.011 64.2369 260.684 64.6094 260.421 65.0261C259.917 65.8406 259.707 66.7968 259.286 67.6615C258.776 68.7062 255.951 71.622 257.168 72.7936C257.757 73.3543 259.083 73.1241 259.743 72.8703C260.627 72.525 261.399 71.864 262.368 71.7282C263.841 71.5187 265.138 72.584 266.287 73.5166C267.436 74.4492 268.939 75.3641 270.312 74.8269C270.972 74.5702 271.55 73.9918 272.257 74.0449C272.964 74.098 273.436 74.7443 273.692 75.3936C274.496 77.5125 273.648 80.0771 274.764 82.0514C275.424 83.2112 276.647 83.9372 277.458 85.0026C277.985 85.6908 278.325 86.5043 278.445 87.3635C278.66 88.8686 278.185 90.3885 278.233 91.9083C278.33 95.1546 280.929 97.9789 284.028 98.8997C284.963 99.1771 285.982 99.3246 286.736 99.9444C287.582 100.638 287.915 101.759 288.398 102.733C289.995 105.882 293.876 107.676 297.306 106.847L296.622 106.074C293.649 106.118 290.641 104.424 289.282 101.745Z" fill="black"/>
<path opacity="0.1" d="M268.969 88.2754C268.583 88.8657 267.478 91.8877 266.555 94.526C265.692 94.1896 264.908 92.0441 264.908 92.0441L269.511 85.4866C269.982 86.1358 269.673 87.213 268.969 88.2754Z" fill="black"/>
<path d="M269.145 88.0984C268.759 88.6886 267.654 91.7106 266.732 94.349C265.869 94.0155 265.085 91.8671 265.085 91.8671L269.687 85.3125C270.159 85.9588 269.85 87.0389 269.145 88.0984Z" fill="#DCE7FF"/>
<path d="M242.385 118.247L239.833 110.188C239.803 110.093 239.791 109.994 239.8 109.895C239.808 109.797 239.836 109.7 239.881 109.612C239.926 109.524 239.989 109.446 240.064 109.382C240.14 109.319 240.228 109.27 240.322 109.241C240.512 109.181 240.718 109.199 240.894 109.291C241.071 109.383 241.204 109.541 241.265 109.73L243.817 117.781L243.563 119.466L242.385 118.247Z" fill="#BE8B87"/>
<path opacity="0.1" d="M240.075 109.48C240.265 109.419 240.471 109.437 240.648 109.529C240.826 109.621 240.959 109.779 241.02 109.969L243.572 118.02L243.381 119.283L243.566 119.478L243.82 117.793L241.253 109.742C241.192 109.553 241.059 109.395 240.882 109.303C240.706 109.211 240.5 109.193 240.31 109.252C240.15 109.304 240.013 109.408 239.918 109.547C239.968 109.521 240.021 109.498 240.075 109.48Z" fill="white"/>
<path d="M242.385 118.248L243.817 117.793L243.607 119.174L243.563 119.478L243.145 119.041L242.385 118.248Z" fill="#EFC8C4"/>
<path d="M243.145 119.041C243.17 119.01 243.201 118.984 243.236 118.965C243.257 118.952 243.281 118.945 243.306 118.945C243.33 118.945 243.354 118.952 243.375 118.965C243.395 118.989 243.412 119.016 243.425 119.044C243.445 119.077 243.471 119.105 243.503 119.126C243.535 119.147 243.57 119.16 243.608 119.166L243.564 119.461L243.145 119.041Z" fill="#727A9C"/>
<path d="M239.818 113.051C239.818 113.051 244.936 113.021 243.731 115.202C242.526 117.383 240.643 117.646 240.643 117.646L239.818 113.051Z" fill="#FFB0B1"/>
<path d="M207.986 15.1749H207.765C198.973 15.1749 191.197 19.8348 186.724 26.7111C182.251 19.8348 174.475 15.1749 165.683 15.1749H165.462C158.863 15.2379 152.556 17.9065 147.911 22.6009C143.266 27.2952 140.658 33.6359 140.654 40.2451C140.654 48.4523 144.243 60.0977 151.241 69.6801C164.575 87.939 186.724 103.914 186.724 103.914C186.724 103.914 208.873 87.942 222.204 69.6801C229.205 60.0977 232.791 48.4523 232.791 40.2451C232.787 33.6365 230.18 27.2962 225.535 22.6019C220.891 17.9076 214.584 15.2387 207.986 15.1749ZM204.825 71.0849C203.823 71.0811 202.847 70.7741 202.023 70.2042C201.199 69.6343 200.566 68.8282 200.207 67.8917H194.951C194.605 67.8895 194.268 67.7792 193.987 67.576C193.707 67.3728 193.497 67.087 193.386 66.7584L191.771 61.8861L186.662 79.7672C186.563 80.1114 186.354 80.414 186.068 80.6295C185.783 80.8451 185.435 80.9619 185.077 80.9624H184.974C184.6 80.9444 184.245 80.7985 183.966 80.5493C183.687 80.3001 183.502 79.9625 183.442 79.5931L178.176 47.8739L174.328 66.6434C174.24 66.9999 174.035 67.3166 173.746 67.5429C173.457 67.7691 173.1 67.8919 172.734 67.8917H165.329C165.107 67.9011 164.885 67.8654 164.678 67.7869C164.47 67.7083 164.28 67.5884 164.12 67.4344C163.959 67.2804 163.831 67.0955 163.744 66.8909C163.657 66.6862 163.612 66.466 163.612 66.2435C163.612 66.021 163.657 65.8007 163.744 65.5961C163.831 65.3914 163.959 65.2065 164.12 65.0525C164.28 64.8986 164.47 64.7787 164.678 64.7001C164.885 64.6215 165.107 64.5858 165.329 64.5952H171.437L176.888 39.3598C176.978 38.9867 177.194 38.6563 177.5 38.4251C177.805 38.1939 178.182 38.0763 178.565 38.0923C178.947 38.1084 179.313 38.2571 179.598 38.513C179.884 38.7689 180.072 39.1163 180.13 39.4955L185.507 71.8522L190.086 55.8539C190.181 55.5169 190.383 55.2199 190.661 55.0072C190.938 54.7944 191.277 54.6773 191.627 54.6734H191.66C192.006 54.6735 192.343 54.7831 192.624 54.9866C192.904 55.1901 193.113 55.4771 193.221 55.8067L196.141 64.6041H200.143C200.427 63.7384 200.945 62.9683 201.639 62.3787C202.333 61.7891 203.176 61.403 204.075 61.263C204.974 61.1231 205.894 61.2346 206.734 61.5854C207.574 61.9362 208.301 62.5125 208.834 63.2509C209.368 63.9892 209.687 64.8608 209.757 65.7695C209.827 66.6781 209.645 67.5885 209.232 68.4002C208.818 69.2118 208.188 69.8932 207.412 70.369C206.636 70.8448 205.744 71.0967 204.834 71.0967L204.825 71.0849Z" fill="#E00000"/>
</g>
<defs>
<linearGradient id="paint0_linear" x1="104.995" y1="228.677" x2="104.995" y2="47.08" gradientUnits="userSpaceOnUse">
<stop stop-color="#808080" stop-opacity="0.25"/>
<stop offset="0.54" stop-color="#808080" stop-opacity="0.12"/>
<stop offset="1" stop-color="#808080" stop-opacity="0.1"/>
</linearGradient>
<linearGradient id="paint1_linear" x1="65771.9" y1="137018" x2="65771.9" y2="43802.1" gradientUnits="userSpaceOnUse">
<stop stop-color="#808080" stop-opacity="0.25"/>
<stop offset="0.54" stop-color="#808080" stop-opacity="0.12"/>
<stop offset="1" stop-color="#808080" stop-opacity="0.1"/>
</linearGradient>
<clipPath id="clip0">
<rect width="325.608" height="231" fill="white"/>
</clipPath>
</defs>
</svg>
