<svg width="243" height="65" viewBox="0 0 243 65" fill="none" xmlns="http://www.w3.org/2000/svg">
<path d="M23.5 65C17.2674 65 11.2901 62.5469 6.88299 58.1804C2.47589 53.8139 0 47.8916 0 41.7164C0 26.194 23.5 0 23.5 0C23.5 0 47 26.194 47 41.7164C47 47.8916 44.5241 53.8139 40.117 58.1804C35.7099 62.5469 29.7326 65 23.5 65Z" fill="#E00000"/>
<path d="M23.5 65C17.2674 65 11.2901 62.5469 6.88299 58.1804C2.47589 53.8139 0 47.8916 0 41.7164C0 26.194 23.5 0 23.5 0C23.5 0 47 26.194 47 41.7164C47 47.8916 44.5241 53.8139 40.117 58.1804C35.7099 62.5469 29.7326 65 23.5 65Z" fill="url(#paint0_linear)"/>
<path d="M82.688 35.672H89.792V49.304C87.968 50.68 85.856 51.736 83.456 52.472C81.056 53.208 78.64 53.576 76.208 53.576C72.72 53.576 69.584 52.84 66.8 51.368C64.016 49.864 61.824 47.8 60.224 45.176C58.656 42.52 57.872 39.528 57.872 36.2C57.872 32.872 58.656 29.896 60.224 27.272C61.824 24.616 64.032 22.552 66.848 21.08C69.664 19.576 72.832 18.824 76.352 18.824C79.296 18.824 81.968 19.32 84.368 20.312C86.768 21.304 88.784 22.744 90.416 24.632L85.424 29.24C83.024 26.712 80.128 25.448 76.736 25.448C74.592 25.448 72.688 25.896 71.024 26.792C69.36 27.688 68.064 28.952 67.136 30.584C66.208 32.216 65.744 34.088 65.744 36.2C65.744 38.28 66.208 40.136 67.136 41.768C68.064 43.4 69.344 44.68 70.976 45.608C72.64 46.504 74.528 46.952 76.64 46.952C78.88 46.952 80.896 46.472 82.688 45.512V35.672ZM108.775 53.384C106.055 53.384 103.607 52.824 101.431 51.704C99.2873 50.552 97.6073 48.968 96.3913 46.952C95.1753 44.936 94.5673 42.648 94.5673 40.088C94.5673 37.528 95.1753 35.24 96.3913 33.224C97.6073 31.208 99.2873 29.64 101.431 28.52C103.607 27.368 106.055 26.792 108.775 26.792C111.495 26.792 113.927 27.368 116.071 28.52C118.215 29.64 119.895 31.208 121.111 33.224C122.327 35.24 122.935 37.528 122.935 40.088C122.935 42.648 122.327 44.936 121.111 46.952C119.895 48.968 118.215 50.552 116.071 51.704C113.927 52.824 111.495 53.384 108.775 53.384ZM108.775 47.24C110.695 47.24 112.263 46.6 113.479 45.32C114.727 44.008 115.351 42.264 115.351 40.088C115.351 37.912 114.727 36.184 113.479 34.904C112.263 33.592 110.695 32.936 108.775 32.936C106.855 32.936 105.271 33.592 104.023 34.904C102.775 36.184 102.151 37.912 102.151 40.088C102.151 42.264 102.775 44.008 104.023 45.32C105.271 46.6 106.855 47.24 108.775 47.24ZM127.449 36.488H141.033V42.488H127.449V36.488ZM147.453 19.4H162.717C166.365 19.4 169.581 20.104 172.365 21.512C175.181 22.888 177.357 24.84 178.893 27.368C180.461 29.896 181.245 32.84 181.245 36.2C181.245 39.56 180.461 42.504 178.893 45.032C177.357 47.56 175.181 49.528 172.365 50.936C169.581 52.312 166.365 53 162.717 53H147.453V19.4ZM162.333 46.616C165.693 46.616 168.365 45.688 170.349 43.832C172.365 41.944 173.373 39.4 173.373 36.2C173.373 33 172.365 30.472 170.349 28.616C168.365 26.728 165.693 25.784 162.333 25.784H155.229V46.616H162.333ZM198.869 53.384C196.149 53.384 193.701 52.824 191.525 51.704C189.381 50.552 187.701 48.968 186.485 46.952C185.269 44.936 184.661 42.648 184.661 40.088C184.661 37.528 185.269 35.24 186.485 33.224C187.701 31.208 189.381 29.64 191.525 28.52C193.701 27.368 196.149 26.792 198.869 26.792C201.589 26.792 204.021 27.368 206.165 28.52C208.309 29.64 209.989 31.208 211.205 33.224C212.421 35.24 213.029 37.528 213.029 40.088C213.029 42.648 212.421 44.936 211.205 46.952C209.989 48.968 208.309 50.552 206.165 51.704C204.021 52.824 201.589 53.384 198.869 53.384ZM198.869 47.24C200.789 47.24 202.357 46.6 203.573 45.32C204.821 44.008 205.445 42.264 205.445 40.088C205.445 37.912 204.821 36.184 203.573 34.904C202.357 33.592 200.789 32.936 198.869 32.936C196.949 32.936 195.365 33.592 194.117 34.904C192.869 36.184 192.245 37.912 192.245 40.088C192.245 42.264 192.869 44.008 194.117 45.32C195.365 46.6 196.949 47.24 198.869 47.24ZM230.514 53.384C227.762 53.384 225.282 52.824 223.074 51.704C220.898 50.552 219.186 48.968 217.938 46.952C216.722 44.936 216.114 42.648 216.114 40.088C216.114 37.528 216.722 35.24 217.938 33.224C219.186 31.208 220.898 29.64 223.074 28.52C225.282 27.368 227.762 26.792 230.514 26.792C233.234 26.792 235.602 27.368 237.618 28.52C239.666 29.64 241.154 31.256 242.082 33.368L236.274 36.488C234.93 34.12 232.994 32.936 230.466 32.936C228.514 32.936 226.898 33.576 225.618 34.856C224.338 36.136 223.698 37.88 223.698 40.088C223.698 42.296 224.338 44.04 225.618 45.32C226.898 46.6 228.514 47.24 230.466 47.24C233.026 47.24 234.962 46.056 236.274 43.688L242.082 46.856C241.154 48.904 239.666 50.504 237.618 51.656C235.602 52.808 233.234 53.384 230.514 53.384Z" fill="black"/>
<defs>
<linearGradient id="paint0_linear" x1="23.5" y1="8.29082" x2="28.4149" y2="65.0105" gradientUnits="userSpaceOnUse">
<stop stop-color="#F3AFAF"/>
<stop offset="1" stop-color="white" stop-opacity="0"/>
</linearGradient>
</defs>
</svg>
